ISO-10303-21;
HEADER;
/* Generated by software containing ST-Developer
 * from STEP Tools, Inc. (www.steptools.com) 
 */
/* OPTION: using custom renumber hook */

FILE_DESCRIPTION(
/* description */ ('STEP AP242 Edition 2',
'CAx-IF Rec.Pracs.---Representation and Presentation of Product Manufa
cturing Information (PMI)---4.0---2014-10-13',
'CAx-IF Rec.Pracs.---3D Tessellated Geometry---0.4---2014-09-14','2;1',
'CAx-IF Rec.Pracs.---User Defined Attributes---1.5---2016-08-15'),
/* implementation_level */ '2;1');

FILE_NAME(
/* name */ 'Assembly 1 - Knob',
/* time_stamp */ '2026-08-23T18:38:52Z',
/* author */ (''),
/* organization */ (''),
/* preprocessor_version */ 'ST-DEVELOPER v20',
/* originating_system */ 'ONSHAPE BY PTC INC, 1.219',
/* authorisation */ '  ');

FILE_SCHEMA (('AP242_MANAGED_MODEL_BASED_3D_ENGINEERING_MIM_LF { 1 0 10303 442 3 1 4 }'));
ENDSEC;

DATA;
#10=SHAPE_REPRESENTATION_RELATIONSHIP('','',#212,#11);
#11=ADVANCED_BREP_SHAPE_REPRESENTATION('',(#210),#343);
#12=LINE('',#305,#30);
#13=LINE('',#308,#31);
#14=LINE('',#310,#32);
#15=LINE('',#312,#33);
#16=LINE('',#314,#34);
#17=LINE('',#316,#35);
#18=LINE('',#318,#36);
#19=LINE('',#321,#37);
#20=LINE('',#323,#38);
#21=LINE('',#325,#39);
#22=LINE('',#327,#40);
#23=LINE('',#329,#41);
#24=LINE('',#331,#42);
#25=LINE('',#332,#43);
#26=LINE('',#334,#44);
#27=LINE('',#336,#45);
#28=LINE('',#338,#46);
#29=LINE('',#340,#47);
#30=VECTOR('',#256,1.);
#31=VECTOR('',#257,1.);
#32=VECTOR('',#258,1.);
#33=VECTOR('',#259,1.);
#34=VECTOR('',#260,1.);
#35=VECTOR('',#261,1.);
#36=VECTOR('',#264,1.);
#37=VECTOR('',#265,1.);
#38=VECTOR('',#266,1.);
#39=VECTOR('',#267,1.);
#40=VECTOR('',#268,1.);
#41=VECTOR('',#269,1.);
#42=VECTOR('',#272,1.);
#43=VECTOR('',#273,1.);
#44=VECTOR('',#276,1.);
#45=VECTOR('',#279,1.);
#46=VECTOR('',#282,1.);
#47=VECTOR('',#285,1.);
#48=TOROIDAL_SURFACE('',#221,0.0065,0.002);
#49=PLANE('',#217);
#50=PLANE('',#219);
#51=PLANE('',#224);
#52=PLANE('',#225);
#53=PLANE('',#226);
#54=PLANE('',#227);
#55=PLANE('',#228);
#56=PLANE('',#229);
#57=PLANE('',#230);
#58=PLANE('',#231);
#59=ORIENTED_EDGE('',*,*,#105,.T.);
#60=ORIENTED_EDGE('',*,*,#106,.F.);
#61=ORIENTED_EDGE('',*,*,#107,.T.);
#62=ORIENTED_EDGE('',*,*,#108,.F.);
#63=ORIENTED_EDGE('',*,*,#106,.T.);
#64=ORIENTED_EDGE('',*,*,#107,.F.);
#65=ORIENTED_EDGE('',*,*,#105,.F.);
#66=ORIENTED_EDGE('',*,*,#109,.F.);
#67=ORIENTED_EDGE('',*,*,#108,.T.);
#68=ORIENTED_EDGE('',*,*,#110,.F.);
#69=ORIENTED_EDGE('',*,*,#111,.F.);
#70=ORIENTED_EDGE('',*,*,#112,.F.);
#71=ORIENTED_EDGE('',*,*,#113,.F.);
#72=ORIENTED_EDGE('',*,*,#114,.F.);
#73=ORIENTED_EDGE('',*,*,#115,.F.);
#74=ORIENTED_EDGE('',*,*,#109,.T.);
#75=ORIENTED_EDGE('',*,*,#116,.T.);
#76=ORIENTED_EDGE('',*,*,#117,.T.);
#77=ORIENTED_EDGE('',*,*,#118,.T.);
#78=ORIENTED_EDGE('',*,*,#119,.T.);
#79=ORIENTED_EDGE('',*,*,#120,.T.);
#80=ORIENTED_EDGE('',*,*,#121,.T.);
#81=ORIENTED_EDGE('',*,*,#122,.T.);
#82=ORIENTED_EDGE('',*,*,#110,.T.);
#83=ORIENTED_EDGE('',*,*,#123,.F.);
#84=ORIENTED_EDGE('',*,*,#116,.F.);
#85=ORIENTED_EDGE('',*,*,#123,.T.);
#86=ORIENTED_EDGE('',*,*,#115,.T.);
#87=ORIENTED_EDGE('',*,*,#124,.F.);
#88=ORIENTED_EDGE('',*,*,#117,.F.);
#89=ORIENTED_EDGE('',*,*,#124,.T.);
#90=ORIENTED_EDGE('',*,*,#114,.T.);
#91=ORIENTED_EDGE('',*,*,#125,.F.);
#92=ORIENTED_EDGE('',*,*,#118,.F.);
#93=ORIENTED_EDGE('',*,*,#125,.T.);
#94=ORIENTED_EDGE('',*,*,#113,.T.);
#95=ORIENTED_EDGE('',*,*,#126,.F.);
#96=ORIENTED_EDGE('',*,*,#119,.F.);
#97=ORIENTED_EDGE('',*,*,#126,.T.);
#98=ORIENTED_EDGE('',*,*,#112,.T.);
#99=ORIENTED_EDGE('',*,*,#127,.F.);
#100=ORIENTED_EDGE('',*,*,#120,.F.);
#101=ORIENTED_EDGE('',*,*,#127,.T.);
#102=ORIENTED_EDGE('',*,*,#111,.T.);
#103=ORIENTED_EDGE('',*,*,#122,.F.);
#104=ORIENTED_EDGE('',*,*,#121,.F.);
#105=EDGE_CURVE('',#128,#128,#145,.T.);
#106=EDGE_CURVE('',#129,#129,#146,.T.);
#107=EDGE_CURVE('',#130,#130,#147,.F.);
#108=EDGE_CURVE('',#131,#131,#148,.T.);
#109=EDGE_CURVE('',#132,#132,#149,.T.);
#110=EDGE_CURVE('',#133,#134,#12,.T.);
#111=EDGE_CURVE('',#135,#133,#13,.T.);
#112=EDGE_CURVE('',#136,#135,#14,.T.);
#113=EDGE_CURVE('',#137,#136,#15,.T.);
#114=EDGE_CURVE('',#138,#137,#16,.T.);
#115=EDGE_CURVE('',#134,#138,#17,.T.);
#116=EDGE_CURVE('',#139,#140,#18,.T.);
#117=EDGE_CURVE('',#140,#141,#19,.T.);
#118=EDGE_CURVE('',#141,#142,#20,.T.);
#119=EDGE_CURVE('',#142,#143,#21,.T.);
#120=EDGE_CURVE('',#143,#144,#22,.T.);
#121=EDGE_CURVE('',#144,#139,#23,.T.);
#122=EDGE_CURVE('',#139,#133,#24,.T.);
#123=EDGE_CURVE('',#140,#134,#25,.T.);
#124=EDGE_CURVE('',#141,#138,#26,.T.);
#125=EDGE_CURVE('',#142,#137,#27,.T.);
#126=EDGE_CURVE('',#143,#136,#28,.T.);
#127=EDGE_CURVE('',#144,#135,#29,.T.);
#128=VERTEX_POINT('',#291);
#129=VERTEX_POINT('',#293);
#130=VERTEX_POINT('',#296);
#131=VERTEX_POINT('',#299);
#132=VERTEX_POINT('',#303);
#133=VERTEX_POINT('',#306);
#134=VERTEX_POINT('',#307);
#135=VERTEX_POINT('',#309);
#136=VERTEX_POINT('',#311);
#137=VERTEX_POINT('',#313);
#138=VERTEX_POINT('',#315);
#139=VERTEX_POINT('',#319);
#140=VERTEX_POINT('',#320);
#141=VERTEX_POINT('',#322);
#142=VERTEX_POINT('',#324);
#143=VERTEX_POINT('',#326);
#144=VERTEX_POINT('',#328);
#145=CIRCLE('',#215,0.0085);
#146=CIRCLE('',#216,0.0085);
#147=CIRCLE('',#218,0.0065);
#148=CIRCLE('',#220,0.005);
#149=CIRCLE('',#223,0.005);
#150=EDGE_LOOP('',(#59));
#151=EDGE_LOOP('',(#60));
#152=EDGE_LOOP('',(#61));
#153=EDGE_LOOP('',(#62));
#154=EDGE_LOOP('',(#63));
#155=EDGE_LOOP('',(#64));
#156=EDGE_LOOP('',(#65));
#157=EDGE_LOOP('',(#66));
#158=EDGE_LOOP('',(#67));
#159=EDGE_LOOP('',(#68,#69,#70,#71,#72,#73));
#160=EDGE_LOOP('',(#74));
#161=EDGE_LOOP('',(#75,#76,#77,#78,#79,#80));
#162=EDGE_LOOP('',(#81,#82,#83,#84));
#163=EDGE_LOOP('',(#85,#86,#87,#88));
#164=EDGE_LOOP('',(#89,#90,#91,#92));
#165=EDGE_LOOP('',(#93,#94,#95,#96));
#166=EDGE_LOOP('',(#97,#98,#99,#100));
#167=EDGE_LOOP('',(#101,#102,#103,#104));
#168=FACE_BOUND('',#150,.T.);
#169=FACE_BOUND('',#151,.T.);
#170=FACE_BOUND('',#152,.T.);
#171=FACE_BOUND('',#153,.T.);
#172=FACE_BOUND('',#154,.T.);
#173=FACE_BOUND('',#155,.T.);
#174=FACE_BOUND('',#156,.T.);
#175=FACE_BOUND('',#157,.T.);
#176=FACE_BOUND('',#158,.T.);
#177=FACE_BOUND('',#159,.T.);
#178=FACE_BOUND('',#160,.T.);
#179=FACE_BOUND('',#161,.T.);
#180=FACE_BOUND('',#162,.T.);
#181=FACE_BOUND('',#163,.T.);
#182=FACE_BOUND('',#164,.T.);
#183=FACE_BOUND('',#165,.T.);
#184=FACE_BOUND('',#166,.T.);
#185=FACE_BOUND('',#167,.T.);
#186=CYLINDRICAL_SURFACE('',#214,0.0085);
#187=CYLINDRICAL_SURFACE('',#222,0.005);
#188=ADVANCED_FACE('',(#168,#169),#186,.T.);
#189=ADVANCED_FACE('',(#170),#49,.F.);
#190=ADVANCED_FACE('',(#171,#172),#50,.T.);
#191=ADVANCED_FACE('',(#173,#174),#48,.T.);
#192=ADVANCED_FACE('',(#175,#176),#187,.T.);
#193=ADVANCED_FACE('',(#177,#178),#51,.T.);
#194=ADVANCED_FACE('',(#179),#52,.T.);
#195=ADVANCED_FACE('',(#180),#53,.F.);
#196=ADVANCED_FACE('',(#181),#54,.F.);
#197=ADVANCED_FACE('',(#182),#55,.F.);
#198=ADVANCED_FACE('',(#183),#56,.F.);
#199=ADVANCED_FACE('',(#184),#57,.F.);
#200=ADVANCED_FACE('',(#185),#58,.F.);
#201=CLOSED_SHELL('',(#188,#189,#190,#191,#192,#193,#194,#195,#196,#197,
#198,#199,#200));
#202=STYLED_ITEM('',(#203),#210);
#203=PRESENTATION_STYLE_ASSIGNMENT((#204));
#204=SURFACE_STYLE_USAGE(.BOTH.,#205);
#205=SURFACE_SIDE_STYLE('',(#206));
#206=SURFACE_STYLE_FILL_AREA(#207);
#207=FILL_AREA_STYLE('',(#208));
#208=FILL_AREA_STYLE_COLOUR('',#209);
#209=COLOUR_RGB('',0.917647058823529,0.917647058823529,0.917647058823529);
#210=MANIFOLD_SOLID_BREP('Knob',#201);
#211=SHAPE_DEFINITION_REPRESENTATION(#348,#212);
#212=SHAPE_REPRESENTATION('Knob',(#213),#343);
#213=AXIS2_PLACEMENT_3D('',#288,#232,#233);
#214=AXIS2_PLACEMENT_3D('',#289,#234,#235);
#215=AXIS2_PLACEMENT_3D('',#290,#236,#237);
#216=AXIS2_PLACEMENT_3D('',#292,#238,#239);
#217=AXIS2_PLACEMENT_3D('',#294,#240,#241);
#218=AXIS2_PLACEMENT_3D('',#295,#242,#243);
#219=AXIS2_PLACEMENT_3D('',#297,#244,#245);
#220=AXIS2_PLACEMENT_3D('',#298,#246,#247);
#221=AXIS2_PLACEMENT_3D('',#300,#248,#249);
#222=AXIS2_PLACEMENT_3D('',#301,#250,#251);
#223=AXIS2_PLACEMENT_3D('',#302,#252,#253);
#224=AXIS2_PLACEMENT_3D('',#304,#254,#255);
#225=AXIS2_PLACEMENT_3D('',#317,#262,#263);
#226=AXIS2_PLACEMENT_3D('',#330,#270,#271);
#227=AXIS2_PLACEMENT_3D('',#333,#274,#275);
#228=AXIS2_PLACEMENT_3D('',#335,#277,#278);
#229=AXIS2_PLACEMENT_3D('',#337,#280,#281);
#230=AXIS2_PLACEMENT_3D('',#339,#283,#284);
#231=AXIS2_PLACEMENT_3D('',#341,#286,#287);
#232=DIRECTION('',(0.,0.,1.));
#233=DIRECTION('',(1.,0.,0.));
#234=DIRECTION('',(0.,0.,1.));
#235=DIRECTION('',(1.,0.,0.));
#236=DIRECTION('',(0.,0.,1.));
#237=DIRECTION('',(1.,0.,0.));
#238=DIRECTION('',(0.,0.,1.));
#239=DIRECTION('',(1.,0.,0.));
#240=DIRECTION('',(0.,0.,1.));
#241=DIRECTION('',(1.,0.,0.));
#242=DIRECTION('',(0.,0.,1.));
#243=DIRECTION('',(1.,0.,0.));
#244=DIRECTION('',(0.,0.,1.));
#245=DIRECTION('',(1.,0.,0.));
#246=DIRECTION('',(0.,0.,1.));
#247=DIRECTION('',(1.,0.,0.));
#248=DIRECTION('',(0.,0.,1.));
#249=DIRECTION('',(1.,0.,0.));
#250=DIRECTION('',(0.,0.,-1.));
#251=DIRECTION('',(-1.,0.,0.));
#252=DIRECTION('',(0.,0.,1.));
#253=DIRECTION('',(1.,0.,0.));
#254=DIRECTION('',(0.,0.,1.));
#255=DIRECTION('',(1.,0.,0.));
#256=DIRECTION('',(0.866025403784438,0.5,0.));
#257=DIRECTION('',(0.866025403784439,-0.5,0.));
#258=DIRECTION('',(0.,-1.,0.));
#259=DIRECTION('',(-0.866025403784439,-0.5,0.));
#260=DIRECTION('',(-0.866025403784438,0.5,0.));
#261=DIRECTION('',(0.,1.,0.));
#262=DIRECTION('',(0.,0.,1.));
#263=DIRECTION('',(1.,0.,0.));
#264=DIRECTION('',(0.866025403784438,0.5,0.));
#265=DIRECTION('',(0.,1.,0.));
#266=DIRECTION('',(-0.866025403784438,0.5,0.));
#267=DIRECTION('',(-0.866025403784439,-0.5,0.));
#268=DIRECTION('',(0.,-1.,0.));
#269=DIRECTION('',(0.866025403784439,-0.5,0.));
#270=DIRECTION('',(-0.5,0.866025403784437,0.));
#271=DIRECTION('',(-0.866025403784438,-0.5,0.));
#272=DIRECTION('',(0.,0.,-1.));
#273=DIRECTION('',(0.,0.,-1.));
#274=DIRECTION('',(-1.,0.,0.));
#275=DIRECTION('',(0.,0.,1.));
#276=DIRECTION('',(0.,0.,-1.));
#277=DIRECTION('',(-0.5,-0.866025403784438,0.));
#278=DIRECTION('',(0.866025403784439,-0.5,0.));
#279=DIRECTION('',(0.,0.,-1.));
#280=DIRECTION('',(0.5,-0.866025403784439,0.));
#281=DIRECTION('',(0.866025403784439,0.5,0.));
#282=DIRECTION('',(0.,0.,-1.));
#283=DIRECTION('',(1.,0.,0.));
#284=DIRECTION('',(0.,0.,-1.));
#285=DIRECTION('',(0.,0.,-1.));
#286=DIRECTION('',(0.5,0.866025403784439,0.));
#287=DIRECTION('',(-0.866025403784439,0.5,0.));
#288=CARTESIAN_POINT('',(0.,0.,0.));
#289=CARTESIAN_POINT('',(0.0953773856163025,0.0645451545715332,0.004));
#290=CARTESIAN_POINT('',(0.0953773856163025,0.0645451545715332,0.006));
#291=CARTESIAN_POINT('',(0.103877385616302,0.0645451545715332,0.006));
#292=CARTESIAN_POINT('',(0.0953773856163025,0.0645451545715332,0.009));
#293=CARTESIAN_POINT('',(0.103877385616302,0.0645451545715332,0.009));
#294=CARTESIAN_POINT('',(0.0953773856163025,0.0645451545715332,0.004));
#295=CARTESIAN_POINT('',(0.0953773856163025,0.0645451545715332,0.004));
#296=CARTESIAN_POINT('',(0.101877385616303,0.0645451545715332,0.004));
#297=CARTESIAN_POINT('',(0.0953773856163025,0.0645451545715332,0.009));
#298=CARTESIAN_POINT('',(0.0953773856163025,0.0645451545715332,0.009));
#299=CARTESIAN_POINT('',(0.100377385616303,0.0645451545715332,0.009));
#300=CARTESIAN_POINT('',(0.0953773856163025,0.0645451545715332,0.006));
#301=CARTESIAN_POINT('',(0.0953773856163025,0.0645451545715332,0.01));
#302=CARTESIAN_POINT('',(0.0953773856163025,0.0645451545715332,0.01));
#303=CARTESIAN_POINT('',(0.100377385616303,0.0645451545715332,0.01));
#304=CARTESIAN_POINT('',(0.0953773856163025,0.0645451545715332,0.01));
#305=CARTESIAN_POINT('',(0.0970773856163025,0.0616006681986661,0.01));
#306=CARTESIAN_POINT('',(0.0953773856163025,0.0606191727410437,0.01));
#307=CARTESIAN_POINT('',(0.0987773856163025,0.0625821636562885,0.01));
#308=CARTESIAN_POINT('',(0.0936773856163025,0.0616006681986661,0.01));
#309=CARTESIAN_POINT('',(0.0919773856163025,0.0625821636562885,0.01));
#310=CARTESIAN_POINT('',(0.0919773856163025,0.0645451545715332,0.01));
#311=CARTESIAN_POINT('',(0.0919773856163025,0.0665081454867779,0.01));
#312=CARTESIAN_POINT('',(0.0936773856163025,0.0674896409444003,0.01));
#313=CARTESIAN_POINT('',(0.0953773856163025,0.0684711364020226,0.01));
#314=CARTESIAN_POINT('',(0.0970773856163025,0.0674896409444003,0.01));
#315=CARTESIAN_POINT('',(0.0987773856163025,0.0665081454867779,0.01));
#316=CARTESIAN_POINT('',(0.0987773856163025,0.0645451545715332,0.01));
#317=CARTESIAN_POINT('',(0.0953773856163025,0.0645451545715332,0.069));
#318=CARTESIAN_POINT('',(0.0970773856163025,0.0616006681986661,0.069));
#319=CARTESIAN_POINT('',(0.0953773856163025,0.0606191727410437,0.069));
#320=CARTESIAN_POINT('',(0.0987773856163025,0.0625821636562885,0.069));
#321=CARTESIAN_POINT('',(0.0987773856163025,0.0645451545715332,0.069));
#322=CARTESIAN_POINT('',(0.0987773856163025,0.0665081454867779,0.069));
#323=CARTESIAN_POINT('',(0.0970773856163025,0.0674896409444003,0.069));
#324=CARTESIAN_POINT('',(0.0953773856163025,0.0684711364020226,0.069));
#325=CARTESIAN_POINT('',(0.0936773856163025,0.0674896409444003,0.069));
#326=CARTESIAN_POINT('',(0.0919773856163025,0.0665081454867779,0.069));
#327=CARTESIAN_POINT('',(0.0919773856163025,0.0645451545715332,0.069));
#328=CARTESIAN_POINT('',(0.0919773856163025,0.0625821636562885,0.069));
#329=CARTESIAN_POINT('',(0.0936773856163025,0.0616006681986661,0.069));
#330=CARTESIAN_POINT('',(0.0970773856163025,0.0616006681986661,0.069));
#331=CARTESIAN_POINT('',(0.0953773856163025,0.0606191727410437,0.069));
#332=CARTESIAN_POINT('',(0.0987773856163025,0.0625821636562885,0.069));
#333=CARTESIAN_POINT('',(0.0987773856163025,0.0645451545715332,0.069));
#334=CARTESIAN_POINT('',(0.0987773856163025,0.0665081454867779,0.069));
#335=CARTESIAN_POINT('',(0.0970773856163025,0.0674896409444003,0.069));
#336=CARTESIAN_POINT('',(0.0953773856163025,0.0684711364020226,0.069));
#337=CARTESIAN_POINT('',(0.0936773856163025,0.0674896409444003,0.069));
#338=CARTESIAN_POINT('',(0.0919773856163025,0.0665081454867779,0.069));
#339=CARTESIAN_POINT('',(0.0919773856163025,0.0645451545715332,0.069));
#340=CARTESIAN_POINT('',(0.0919773856163025,0.0625821636562885,0.069));
#341=CARTESIAN_POINT('',(0.0936773856163025,0.0616006681986661,0.069));
#342=MECHANICAL_DESIGN_GEOMETRIC_PRESENTATION_REPRESENTATION('',(#202),
#343);
#343=(
GEOMETRIC_REPRESENTATION_CONTEXT(3)
GLOBAL_UNCERTAINTY_ASSIGNED_CONTEXT((#344))
GLOBAL_UNIT_ASSIGNED_CONTEXT((#347,#346,#345))
REPRESENTATION_CONTEXT('Knob','TOP_LEVEL_ASSEMBLY_PART')
);
#344=UNCERTAINTY_MEASURE_WITH_UNIT(LENGTH_MEASURE(1.E-8),#347,
'DISTANCE_ACCURACY_VALUE','Maximum Tolerance applied to model');
#345=(
NAMED_UNIT(*)
SI_UNIT($,.STERADIAN.)
SOLID_ANGLE_UNIT()
);
#346=(
NAMED_UNIT(*)
PLANE_ANGLE_UNIT()
SI_UNIT($,.RADIAN.)
);
#347=(
LENGTH_UNIT()
NAMED_UNIT(*)
SI_UNIT($,.METRE.)
);
#348=PRODUCT_DEFINITION_SHAPE('','',#349);
#349=PRODUCT_DEFINITION('','',#351,#350);
#350=PRODUCT_DEFINITION_CONTEXT('',#357,'design');
#351=PRODUCT_DEFINITION_FORMATION_WITH_SPECIFIED_SOURCE('','',#353,
 .NOT_KNOWN.);
#352=PRODUCT_RELATED_PRODUCT_CATEGORY('','',(#353));
#353=PRODUCT('Knob','Knob','Knob',(#355));
#354=PRODUCT_CATEGORY('','');
#355=PRODUCT_CONTEXT('',#357,'mechanical');
#356=APPLICATION_PROTOCOL_DEFINITION('international standard',
'ap242_managed_model_based_3d_engineering',2020,#357);
#357=APPLICATION_CONTEXT('managed model based 3d engineering');
ENDSEC;
END-ISO-10303-21;
