ISO-10303-21;
HEADER;
/* Generated by software containing ST-Developer
 * from STEP Tools, Inc. (www.steptools.com) 
 */
/* OPTION: using custom renumber hook */

FILE_DESCRIPTION(
/* description */ ('STEP AP242 Edition 2',
'CAx-IF Rec.Pracs.---Representation and Presentation of Product Manufa
cturing Information (PMI)---4.0---2014-10-13',
'CAx-IF Rec.Pracs.---3D Tessellated Geometry---0.4---2014-09-14','2;1',
'CAx-IF Rec.Pracs.---User Defined Attributes---1.5---2016-08-15'),
/* implementation_level */ '2;1');

FILE_NAME(
/* name */ 'Assembly 1 - Axle Cover',
/* time_stamp */ '2026-08-23T18:37:23Z',
/* author */ (''),
/* organization */ (''),
/* preprocessor_version */ 'ST-DEVELOPER v20',
/* originating_system */ 'ONSHAPE BY PTC INC, 1.219',
/* authorisation */ '  ');

FILE_SCHEMA (('AP242_MANAGED_MODEL_BASED_3D_ENGINEERING_MIM_LF { 1 0 10303 442 3 1 4 }'));
ENDSEC;

DATA;
#10=SHAPE_REPRESENTATION_RELATIONSHIP('','',#199,#11);
#11=ADVANCED_BREP_SHAPE_REPRESENTATION('',(#197),#317);
#12=CIRCLE('',#208,0.005);
#13=CIRCLE('',#209,0.005);
#14=CIRCLE('',#212,0.00225);
#15=CIRCLE('',#214,0.00225);
#16=CYLINDRICAL_SURFACE('',#207,0.005);
#17=CYLINDRICAL_SURFACE('',#215,0.00225);
#18=ORIENTED_EDGE('',*,*,#62,.F.);
#19=ORIENTED_EDGE('',*,*,#63,.F.);
#20=ORIENTED_EDGE('',*,*,#64,.T.);
#21=ORIENTED_EDGE('',*,*,#65,.T.);
#22=ORIENTED_EDGE('',*,*,#66,.F.);
#23=ORIENTED_EDGE('',*,*,#67,.F.);
#24=ORIENTED_EDGE('',*,*,#68,.T.);
#25=ORIENTED_EDGE('',*,*,#63,.T.);
#26=ORIENTED_EDGE('',*,*,#69,.F.);
#27=ORIENTED_EDGE('',*,*,#70,.F.);
#28=ORIENTED_EDGE('',*,*,#71,.T.);
#29=ORIENTED_EDGE('',*,*,#67,.T.);
#30=ORIENTED_EDGE('',*,*,#72,.F.);
#31=ORIENTED_EDGE('',*,*,#73,.F.);
#32=ORIENTED_EDGE('',*,*,#74,.T.);
#33=ORIENTED_EDGE('',*,*,#70,.T.);
#34=ORIENTED_EDGE('',*,*,#75,.F.);
#35=ORIENTED_EDGE('',*,*,#76,.F.);
#36=ORIENTED_EDGE('',*,*,#77,.T.);
#37=ORIENTED_EDGE('',*,*,#73,.T.);
#38=ORIENTED_EDGE('',*,*,#78,.F.);
#39=ORIENTED_EDGE('',*,*,#65,.F.);
#40=ORIENTED_EDGE('',*,*,#79,.T.);
#41=ORIENTED_EDGE('',*,*,#76,.T.);
#42=ORIENTED_EDGE('',*,*,#80,.F.);
#43=ORIENTED_EDGE('',*,*,#81,.T.);
#44=ORIENTED_EDGE('',*,*,#64,.F.);
#45=ORIENTED_EDGE('',*,*,#68,.F.);
#46=ORIENTED_EDGE('',*,*,#71,.F.);
#47=ORIENTED_EDGE('',*,*,#74,.F.);
#48=ORIENTED_EDGE('',*,*,#77,.F.);
#49=ORIENTED_EDGE('',*,*,#79,.F.);
#50=ORIENTED_EDGE('',*,*,#80,.T.);
#51=ORIENTED_EDGE('',*,*,#82,.T.);
#52=ORIENTED_EDGE('',*,*,#66,.T.);
#53=ORIENTED_EDGE('',*,*,#62,.T.);
#54=ORIENTED_EDGE('',*,*,#78,.T.);
#55=ORIENTED_EDGE('',*,*,#75,.T.);
#56=ORIENTED_EDGE('',*,*,#72,.T.);
#57=ORIENTED_EDGE('',*,*,#69,.T.);
#58=ORIENTED_EDGE('',*,*,#83,.F.);
#59=ORIENTED_EDGE('',*,*,#81,.F.);
#60=ORIENTED_EDGE('',*,*,#83,.T.);
#61=ORIENTED_EDGE('',*,*,#82,.F.);
#62=EDGE_CURVE('',#84,#85,#100,.T.);
#63=EDGE_CURVE('',#86,#84,#101,.T.);
#64=EDGE_CURVE('',#86,#87,#102,.T.);
#65=EDGE_CURVE('',#87,#85,#103,.T.);
#66=EDGE_CURVE('',#88,#84,#104,.T.);
#67=EDGE_CURVE('',#89,#88,#105,.T.);
#68=EDGE_CURVE('',#89,#86,#106,.T.);
#69=EDGE_CURVE('',#90,#88,#107,.T.);
#70=EDGE_CURVE('',#91,#90,#108,.T.);
#71=EDGE_CURVE('',#91,#89,#109,.T.);
#72=EDGE_CURVE('',#92,#90,#110,.T.);
#73=EDGE_CURVE('',#93,#92,#111,.T.);
#74=EDGE_CURVE('',#93,#91,#112,.T.);
#75=EDGE_CURVE('',#94,#92,#113,.T.);
#76=EDGE_CURVE('',#95,#94,#114,.T.);
#77=EDGE_CURVE('',#95,#93,#115,.T.);
#78=EDGE_CURVE('',#85,#94,#116,.T.);
#79=EDGE_CURVE('',#87,#95,#117,.T.);
#80=EDGE_CURVE('',#96,#96,#12,.T.);
#81=EDGE_CURVE('',#97,#97,#13,.T.);
#82=EDGE_CURVE('',#98,#98,#14,.T.);
#83=EDGE_CURVE('',#99,#99,#15,.T.);
#84=VERTEX_POINT('',#269);
#85=VERTEX_POINT('',#270);
#86=VERTEX_POINT('',#272);
#87=VERTEX_POINT('',#274);
#88=VERTEX_POINT('',#278);
#89=VERTEX_POINT('',#280);
#90=VERTEX_POINT('',#284);
#91=VERTEX_POINT('',#286);
#92=VERTEX_POINT('',#290);
#93=VERTEX_POINT('',#292);
#94=VERTEX_POINT('',#296);
#95=VERTEX_POINT('',#298);
#96=VERTEX_POINT('',#305);
#97=VERTEX_POINT('',#307);
#98=VERTEX_POINT('',#311);
#99=VERTEX_POINT('',#314);
#100=LINE('',#268,#118);
#101=LINE('',#271,#119);
#102=LINE('',#273,#120);
#103=LINE('',#275,#121);
#104=LINE('',#277,#122);
#105=LINE('',#279,#123);
#106=LINE('',#281,#124);
#107=LINE('',#283,#125);
#108=LINE('',#285,#126);
#109=LINE('',#287,#127);
#110=LINE('',#289,#128);
#111=LINE('',#291,#129);
#112=LINE('',#293,#130);
#113=LINE('',#295,#131);
#114=LINE('',#297,#132);
#115=LINE('',#299,#133);
#116=LINE('',#301,#134);
#117=LINE('',#302,#135);
#118=VECTOR('',#220,1.);
#119=VECTOR('',#221,1.);
#120=VECTOR('',#222,1.);
#121=VECTOR('',#223,1.);
#122=VECTOR('',#226,1.);
#123=VECTOR('',#227,1.);
#124=VECTOR('',#228,1.);
#125=VECTOR('',#231,1.);
#126=VECTOR('',#232,1.);
#127=VECTOR('',#233,1.);
#128=VECTOR('',#236,1.);
#129=VECTOR('',#237,1.);
#130=VECTOR('',#238,1.);
#131=VECTOR('',#241,1.);
#132=VECTOR('',#242,1.);
#133=VECTOR('',#243,1.);
#134=VECTOR('',#246,1.);
#135=VECTOR('',#247,1.);
#136=EDGE_LOOP('',(#18,#19,#20,#21));
#137=EDGE_LOOP('',(#22,#23,#24,#25));
#138=EDGE_LOOP('',(#26,#27,#28,#29));
#139=EDGE_LOOP('',(#30,#31,#32,#33));
#140=EDGE_LOOP('',(#34,#35,#36,#37));
#141=EDGE_LOOP('',(#38,#39,#40,#41));
#142=EDGE_LOOP('',(#42));
#143=EDGE_LOOP('',(#43));
#144=EDGE_LOOP('',(#44,#45,#46,#47,#48,#49));
#145=EDGE_LOOP('',(#50));
#146=EDGE_LOOP('',(#51));
#147=EDGE_LOOP('',(#52,#53,#54,#55,#56,#57));
#148=EDGE_LOOP('',(#58));
#149=EDGE_LOOP('',(#59));
#150=EDGE_LOOP('',(#60));
#151=EDGE_LOOP('',(#61));
#152=FACE_BOUND('',#136,.T.);
#153=FACE_BOUND('',#137,.T.);
#154=FACE_BOUND('',#138,.T.);
#155=FACE_BOUND('',#139,.T.);
#156=FACE_BOUND('',#140,.T.);
#157=FACE_BOUND('',#141,.T.);
#158=FACE_BOUND('',#142,.T.);
#159=FACE_BOUND('',#143,.T.);
#160=FACE_BOUND('',#144,.T.);
#161=FACE_BOUND('',#145,.T.);
#162=FACE_BOUND('',#146,.T.);
#163=FACE_BOUND('',#147,.T.);
#164=FACE_BOUND('',#148,.T.);
#165=FACE_BOUND('',#149,.T.);
#166=FACE_BOUND('',#150,.T.);
#167=FACE_BOUND('',#151,.T.);
#168=PLANE('',#201);
#169=PLANE('',#202);
#170=PLANE('',#203);
#171=PLANE('',#204);
#172=PLANE('',#205);
#173=PLANE('',#206);
#174=PLANE('',#210);
#175=PLANE('',#211);
#176=PLANE('',#213);
#177=ADVANCED_FACE('',(#152),#168,.T.);
#178=ADVANCED_FACE('',(#153),#169,.T.);
#179=ADVANCED_FACE('',(#154),#170,.T.);
#180=ADVANCED_FACE('',(#155),#171,.T.);
#181=ADVANCED_FACE('',(#156),#172,.T.);
#182=ADVANCED_FACE('',(#157),#173,.T.);
#183=ADVANCED_FACE('',(#158,#159),#16,.T.);
#184=ADVANCED_FACE('',(#160,#161),#174,.T.);
#185=ADVANCED_FACE('',(#162,#163),#175,.F.);
#186=ADVANCED_FACE('',(#164,#165),#176,.T.);
#187=ADVANCED_FACE('',(#166,#167),#17,.F.);
#188=CLOSED_SHELL('',(#177,#178,#179,#180,#181,#182,#183,#184,#185,#186,
#187));
#189=STYLED_ITEM('',(#190),#197);
#190=PRESENTATION_STYLE_ASSIGNMENT((#191));
#191=SURFACE_STYLE_USAGE(.BOTH.,#192);
#192=SURFACE_SIDE_STYLE('',(#193));
#193=SURFACE_STYLE_FILL_AREA(#194);
#194=FILL_AREA_STYLE('',(#195));
#195=FILL_AREA_STYLE_COLOUR('',#196);
#196=COLOUR_RGB('',0.498039215686275,0.498039215686275,0.498039215686275);
#197=MANIFOLD_SOLID_BREP('Axle Cover',#188);
#198=SHAPE_DEFINITION_REPRESENTATION(#322,#199);
#199=SHAPE_REPRESENTATION('Axle Cover',(#200),#317);
#200=AXIS2_PLACEMENT_3D('',#266,#216,#217);
#201=AXIS2_PLACEMENT_3D('',#267,#218,#219);
#202=AXIS2_PLACEMENT_3D('',#276,#224,#225);
#203=AXIS2_PLACEMENT_3D('',#282,#229,#230);
#204=AXIS2_PLACEMENT_3D('',#288,#234,#235);
#205=AXIS2_PLACEMENT_3D('',#294,#239,#240);
#206=AXIS2_PLACEMENT_3D('',#300,#244,#245);
#207=AXIS2_PLACEMENT_3D('',#303,#248,#249);
#208=AXIS2_PLACEMENT_3D('',#304,#250,#251);
#209=AXIS2_PLACEMENT_3D('',#306,#252,#253);
#210=AXIS2_PLACEMENT_3D('',#308,#254,#255);
#211=AXIS2_PLACEMENT_3D('',#309,#256,#257);
#212=AXIS2_PLACEMENT_3D('',#310,#258,#259);
#213=AXIS2_PLACEMENT_3D('',#312,#260,#261);
#214=AXIS2_PLACEMENT_3D('',#313,#262,#263);
#215=AXIS2_PLACEMENT_3D('',#315,#264,#265);
#216=DIRECTION('',(0.,0.,1.));
#217=DIRECTION('',(1.,0.,0.));
#218=DIRECTION('',(-1.,-6.67695377216516E-15,0.));
#219=DIRECTION('',(6.67695377216516E-15,-1.,0.));
#220=DIRECTION('',(-6.67695377216516E-15,1.,0.));
#221=DIRECTION('',(0.,0.,-1.));
#222=DIRECTION('',(-6.67695377216516E-15,1.,0.));
#223=DIRECTION('',(0.,0.,-1.));
#224=DIRECTION('',(-0.5,0.866025403784436,0.));
#225=DIRECTION('',(-0.866025403784436,-0.5,0.));
#226=DIRECTION('',(0.866025403784436,0.5,0.));
#227=DIRECTION('',(0.,0.,-1.));
#228=DIRECTION('',(0.866025403784436,0.5,0.));
#229=DIRECTION('',(0.5,0.866025403784441,0.));
#230=DIRECTION('',(-0.866025403784441,0.5,0.));
#231=DIRECTION('',(0.866025403784441,-0.5,0.));
#232=DIRECTION('',(0.,0.,-1.));
#233=DIRECTION('',(0.866025403784441,-0.5,0.));
#234=DIRECTION('',(1.,6.67695377216518E-15,0.));
#235=DIRECTION('',(-6.67695377216518E-15,1.,0.));
#236=DIRECTION('',(6.67695377216518E-15,-1.,0.));
#237=DIRECTION('',(0.,0.,-1.));
#238=DIRECTION('',(6.67695377216518E-15,-1.,0.));
#239=DIRECTION('',(0.5,-0.866025403784437,0.));
#240=DIRECTION('',(0.866025403784437,0.5,0.));
#241=DIRECTION('',(-0.866025403784437,-0.5,0.));
#242=DIRECTION('',(0.,0.,-1.));
#243=DIRECTION('',(-0.866025403784437,-0.5,0.));
#244=DIRECTION('',(-0.5,-0.866025403784441,0.));
#245=DIRECTION('',(0.866025403784441,-0.5,0.));
#246=DIRECTION('',(-0.866025403784441,0.5,0.));
#247=DIRECTION('',(-0.866025403784441,0.5,0.));
#248=DIRECTION('',(0.,0.,-1.));
#249=DIRECTION('',(-1.,0.,0.));
#250=DIRECTION('',(0.,0.,1.));
#251=DIRECTION('',(1.,0.,0.));
#252=DIRECTION('',(0.,0.,1.));
#253=DIRECTION('',(1.,0.,0.));
#254=DIRECTION('',(0.,0.,1.));
#255=DIRECTION('',(1.,0.,0.));
#256=DIRECTION('',(0.,0.,-1.));
#257=DIRECTION('',(1.,0.,0.));
#258=DIRECTION('',(0.,0.,-1.));
#259=DIRECTION('',(-1.,0.,0.));
#260=DIRECTION('',(0.,0.,-1.));
#261=DIRECTION('',(1.,0.,0.));
#262=DIRECTION('',(0.,0.,-1.));
#263=DIRECTION('',(-1.,0.,0.));
#264=DIRECTION('',(0.,0.,-1.));
#265=DIRECTION('',(-1.,0.,0.));
#266=CARTESIAN_POINT('',(0.,0.,0.));
#267=CARTESIAN_POINT('',(0.113609874200543,0.0572461337216904,0.00293856));
#268=CARTESIAN_POINT('',(0.113609874200543,0.0572461337216904,0.));
#269=CARTESIAN_POINT('',(0.113609874200543,0.0551676727526078,0.));
#270=CARTESIAN_POINT('',(0.113609874200543,0.0593245946907731,0.));
#271=CARTESIAN_POINT('',(0.113609874200543,0.0551676727526078,0.00293856));
#272=CARTESIAN_POINT('',(0.113609874200543,0.0551676727526078,0.00293856));
#273=CARTESIAN_POINT('',(0.113609874200543,0.0572461337216904,0.00293856));
#274=CARTESIAN_POINT('',(0.113609874200543,0.0593245946907731,0.00293856));
#275=CARTESIAN_POINT('',(0.113609874200543,0.0593245946907731,0.00293856));
#276=CARTESIAN_POINT('',(0.111809874200543,0.0541284422680664,0.00293856));
#277=CARTESIAN_POINT('',(0.111809874200543,0.0541284422680664,0.));
#278=CARTESIAN_POINT('',(0.110009874200543,0.0530892117835251,0.));
#279=CARTESIAN_POINT('',(0.110009874200543,0.0530892117835251,0.00293856));
#280=CARTESIAN_POINT('',(0.110009874200543,0.0530892117835251,0.00293856));
#281=CARTESIAN_POINT('',(0.111809874200543,0.0541284422680664,0.00293856));
#282=CARTESIAN_POINT('',(0.108209874200543,0.0541284422680664,0.00293856));
#283=CARTESIAN_POINT('',(0.108209874200543,0.0541284422680664,0.));
#284=CARTESIAN_POINT('',(0.106409874200543,0.0551676727526077,0.));
#285=CARTESIAN_POINT('',(0.106409874200543,0.0551676727526077,0.00293856));
#286=CARTESIAN_POINT('',(0.106409874200543,0.0551676727526077,0.00293856));
#287=CARTESIAN_POINT('',(0.108209874200543,0.0541284422680664,0.00293856));
#288=CARTESIAN_POINT('',(0.106409874200543,0.0572461337216904,0.00293856));
#289=CARTESIAN_POINT('',(0.106409874200543,0.0572461337216904,0.));
#290=CARTESIAN_POINT('',(0.106409874200543,0.0593245946907731,0.));
#291=CARTESIAN_POINT('',(0.106409874200543,0.0593245946907731,0.00293856));
#292=CARTESIAN_POINT('',(0.106409874200543,0.0593245946907731,0.00293856));
#293=CARTESIAN_POINT('',(0.106409874200543,0.0572461337216904,0.00293856));
#294=CARTESIAN_POINT('',(0.108209874200543,0.0603638251753144,0.00293856));
#295=CARTESIAN_POINT('',(0.108209874200543,0.0603638251753144,0.));
#296=CARTESIAN_POINT('',(0.110009874200543,0.0614030556598557,0.));
#297=CARTESIAN_POINT('',(0.110009874200543,0.0614030556598557,0.00293856));
#298=CARTESIAN_POINT('',(0.110009874200543,0.0614030556598557,0.00293856));
#299=CARTESIAN_POINT('',(0.108209874200543,0.0603638251753144,0.00293856));
#300=CARTESIAN_POINT('',(0.111809874200543,0.0603638251753144,0.00293856));
#301=CARTESIAN_POINT('',(0.111809874200543,0.0603638251753144,0.));
#302=CARTESIAN_POINT('',(0.111809874200543,0.0603638251753144,0.00293856));
#303=CARTESIAN_POINT('',(0.110009874200543,0.0572461337216904,0.00293856));
#304=CARTESIAN_POINT('',(0.110009874200543,0.0572461337216904,0.00293856));
#305=CARTESIAN_POINT('',(0.115009874200543,0.0572461337216904,0.00293856));
#306=CARTESIAN_POINT('',(0.110009874200543,0.0572461337216904,-0.002));
#307=CARTESIAN_POINT('',(0.115009874200543,0.0572461337216904,-0.002));
#308=CARTESIAN_POINT('',(0.110009874200543,0.0572461337216904,0.00293856));
#309=CARTESIAN_POINT('',(0.110009874200543,0.0572461337216904,0.));
#310=CARTESIAN_POINT('',(0.110009874200543,0.0572461337216904,0.));
#311=CARTESIAN_POINT('',(0.107759874200543,0.0572461337216904,0.));
#312=CARTESIAN_POINT('',(0.110009874200543,0.0572461337216904,-0.002));
#313=CARTESIAN_POINT('',(0.110009874200543,0.0572461337216904,-0.002));
#314=CARTESIAN_POINT('',(0.107759874200543,0.0572461337216904,-0.002));
#315=CARTESIAN_POINT('',(0.110009874200543,0.0572461337216904,0.023));
#316=MECHANICAL_DESIGN_GEOMETRIC_PRESENTATION_REPRESENTATION('',(#189),
#317);
#317=(
GEOMETRIC_REPRESENTATION_CONTEXT(3)
GLOBAL_UNCERTAINTY_ASSIGNED_CONTEXT((#318))
GLOBAL_UNIT_ASSIGNED_CONTEXT((#321,#320,#319))
REPRESENTATION_CONTEXT('Axle Cover','TOP_LEVEL_ASSEMBLY_PART')
);
#318=UNCERTAINTY_MEASURE_WITH_UNIT(LENGTH_MEASURE(1.E-8),#321,
'DISTANCE_ACCURACY_VALUE','Maximum Tolerance applied to model');
#319=(
NAMED_UNIT(*)
SI_UNIT($,.STERADIAN.)
SOLID_ANGLE_UNIT()
);
#320=(
NAMED_UNIT(*)
PLANE_ANGLE_UNIT()
SI_UNIT($,.RADIAN.)
);
#321=(
LENGTH_UNIT()
NAMED_UNIT(*)
SI_UNIT($,.METRE.)
);
#322=PRODUCT_DEFINITION_SHAPE('','',#323);
#323=PRODUCT_DEFINITION('','',#325,#324);
#324=PRODUCT_DEFINITION_CONTEXT('',#331,'design');
#325=PRODUCT_DEFINITION_FORMATION_WITH_SPECIFIED_SOURCE('','',#327,
 .NOT_KNOWN.);
#326=PRODUCT_RELATED_PRODUCT_CATEGORY('','',(#327));
#327=PRODUCT('Axle Cover','Axle Cover','Axle Cover',(#329));
#328=PRODUCT_CATEGORY('','');
#329=PRODUCT_CONTEXT('',#331,'mechanical');
#330=APPLICATION_PROTOCOL_DEFINITION('international standard',
'ap242_managed_model_based_3d_engineering',2020,#331);
#331=APPLICATION_CONTEXT('managed model based 3d engineering');
ENDSEC;
END-ISO-10303-21;
