ISO-10303-21;
HEADER;
/* Generated by software containing ST-Developer
 * from STEP Tools, Inc. (www.steptools.com) 
 */
/* OPTION: using custom renumber hook */

FILE_DESCRIPTION(
/* description */ ('STEP AP242 Edition 2',
'CAx-IF Rec.Pracs.---Representation and Presentation of Product Manufa
cturing Information (PMI)---4.0---2014-10-13',
'CAx-IF Rec.Pracs.---3D Tessellated Geometry---0.4---2014-09-14','2;1',
'CAx-IF Rec.Pracs.---User Defined Attributes---1.5---2016-08-15'),
/* implementation_level */ '2;1');

FILE_NAME(
/* name */ 'Assembly 1 - Wheel Axle',
/* time_stamp */ '2026-08-23T18:37:23Z',
/* author */ (''),
/* organization */ (''),
/* preprocessor_version */ 'ST-DEVELOPER v20',
/* originating_system */ 'ONSHAPE BY PTC INC, 1.219',
/* authorisation */ '  ');

FILE_SCHEMA (('AP242_MANAGED_MODEL_BASED_3D_ENGINEERING_MIM_LF { 1 0 10303 442 3 1 4 }'));
ENDSEC;

DATA;
#10=SHAPE_REPRESENTATION_RELATIONSHIP('','',#177,#11);
#11=ADVANCED_BREP_SHAPE_REPRESENTATION('',(#175),#277);
#12=CYLINDRICAL_SURFACE('',#189,0.002);
#13=CIRCLE('',#186,0.002);
#14=CIRCLE('',#188,0.002);
#15=ORIENTED_EDGE('',*,*,#55,.T.);
#16=ORIENTED_EDGE('',*,*,#56,.F.);
#17=ORIENTED_EDGE('',*,*,#57,.F.);
#18=ORIENTED_EDGE('',*,*,#58,.T.);
#19=ORIENTED_EDGE('',*,*,#59,.T.);
#20=ORIENTED_EDGE('',*,*,#60,.F.);
#21=ORIENTED_EDGE('',*,*,#61,.F.);
#22=ORIENTED_EDGE('',*,*,#56,.T.);
#23=ORIENTED_EDGE('',*,*,#62,.T.);
#24=ORIENTED_EDGE('',*,*,#63,.F.);
#25=ORIENTED_EDGE('',*,*,#64,.F.);
#26=ORIENTED_EDGE('',*,*,#60,.T.);
#27=ORIENTED_EDGE('',*,*,#65,.T.);
#28=ORIENTED_EDGE('',*,*,#66,.F.);
#29=ORIENTED_EDGE('',*,*,#67,.F.);
#30=ORIENTED_EDGE('',*,*,#63,.T.);
#31=ORIENTED_EDGE('',*,*,#68,.T.);
#32=ORIENTED_EDGE('',*,*,#69,.F.);
#33=ORIENTED_EDGE('',*,*,#70,.F.);
#34=ORIENTED_EDGE('',*,*,#66,.T.);
#35=ORIENTED_EDGE('',*,*,#71,.T.);
#36=ORIENTED_EDGE('',*,*,#58,.F.);
#37=ORIENTED_EDGE('',*,*,#72,.F.);
#38=ORIENTED_EDGE('',*,*,#69,.T.);
#39=ORIENTED_EDGE('',*,*,#73,.F.);
#40=ORIENTED_EDGE('',*,*,#57,.T.);
#41=ORIENTED_EDGE('',*,*,#61,.T.);
#42=ORIENTED_EDGE('',*,*,#64,.T.);
#43=ORIENTED_EDGE('',*,*,#67,.T.);
#44=ORIENTED_EDGE('',*,*,#70,.T.);
#45=ORIENTED_EDGE('',*,*,#72,.T.);
#46=ORIENTED_EDGE('',*,*,#74,.T.);
#47=ORIENTED_EDGE('',*,*,#55,.F.);
#48=ORIENTED_EDGE('',*,*,#71,.F.);
#49=ORIENTED_EDGE('',*,*,#68,.F.);
#50=ORIENTED_EDGE('',*,*,#65,.F.);
#51=ORIENTED_EDGE('',*,*,#62,.F.);
#52=ORIENTED_EDGE('',*,*,#59,.F.);
#53=ORIENTED_EDGE('',*,*,#73,.T.);
#54=ORIENTED_EDGE('',*,*,#74,.F.);
#55=EDGE_CURVE('',#75,#76,#89,.T.);
#56=EDGE_CURVE('',#77,#76,#90,.T.);
#57=EDGE_CURVE('',#78,#77,#91,.T.);
#58=EDGE_CURVE('',#78,#75,#92,.T.);
#59=EDGE_CURVE('',#76,#79,#93,.T.);
#60=EDGE_CURVE('',#80,#79,#94,.T.);
#61=EDGE_CURVE('',#77,#80,#95,.T.);
#62=EDGE_CURVE('',#79,#81,#96,.T.);
#63=EDGE_CURVE('',#82,#81,#97,.T.);
#64=EDGE_CURVE('',#80,#82,#98,.T.);
#65=EDGE_CURVE('',#81,#83,#99,.T.);
#66=EDGE_CURVE('',#84,#83,#100,.T.);
#67=EDGE_CURVE('',#82,#84,#101,.T.);
#68=EDGE_CURVE('',#83,#85,#102,.T.);
#69=EDGE_CURVE('',#86,#85,#103,.T.);
#70=EDGE_CURVE('',#84,#86,#104,.T.);
#71=EDGE_CURVE('',#85,#75,#105,.T.);
#72=EDGE_CURVE('',#86,#78,#106,.T.);
#73=EDGE_CURVE('',#87,#87,#13,.T.);
#74=EDGE_CURVE('',#88,#88,#14,.T.);
#75=VERTEX_POINT('',#235);
#76=VERTEX_POINT('',#236);
#77=VERTEX_POINT('',#238);
#78=VERTEX_POINT('',#240);
#79=VERTEX_POINT('',#244);
#80=VERTEX_POINT('',#246);
#81=VERTEX_POINT('',#250);
#82=VERTEX_POINT('',#252);
#83=VERTEX_POINT('',#256);
#84=VERTEX_POINT('',#258);
#85=VERTEX_POINT('',#262);
#86=VERTEX_POINT('',#264);
#87=VERTEX_POINT('',#271);
#88=VERTEX_POINT('',#274);
#89=LINE('',#234,#107);
#90=LINE('',#237,#108);
#91=LINE('',#239,#109);
#92=LINE('',#241,#110);
#93=LINE('',#243,#111);
#94=LINE('',#245,#112);
#95=LINE('',#247,#113);
#96=LINE('',#249,#114);
#97=LINE('',#251,#115);
#98=LINE('',#253,#116);
#99=LINE('',#255,#117);
#100=LINE('',#257,#118);
#101=LINE('',#259,#119);
#102=LINE('',#261,#120);
#103=LINE('',#263,#121);
#104=LINE('',#265,#122);
#105=LINE('',#267,#123);
#106=LINE('',#268,#124);
#107=VECTOR('',#194,1.);
#108=VECTOR('',#195,1.);
#109=VECTOR('',#196,1.);
#110=VECTOR('',#197,1.);
#111=VECTOR('',#200,1.);
#112=VECTOR('',#201,1.);
#113=VECTOR('',#202,1.);
#114=VECTOR('',#205,1.);
#115=VECTOR('',#206,1.);
#116=VECTOR('',#207,1.);
#117=VECTOR('',#210,1.);
#118=VECTOR('',#211,1.);
#119=VECTOR('',#212,1.);
#120=VECTOR('',#215,1.);
#121=VECTOR('',#216,1.);
#122=VECTOR('',#217,1.);
#123=VECTOR('',#220,1.);
#124=VECTOR('',#221,1.);
#125=EDGE_LOOP('',(#15,#16,#17,#18));
#126=EDGE_LOOP('',(#19,#20,#21,#22));
#127=EDGE_LOOP('',(#23,#24,#25,#26));
#128=EDGE_LOOP('',(#27,#28,#29,#30));
#129=EDGE_LOOP('',(#31,#32,#33,#34));
#130=EDGE_LOOP('',(#35,#36,#37,#38));
#131=EDGE_LOOP('',(#39));
#132=EDGE_LOOP('',(#40,#41,#42,#43,#44,#45));
#133=EDGE_LOOP('',(#46));
#134=EDGE_LOOP('',(#47,#48,#49,#50,#51,#52));
#135=EDGE_LOOP('',(#53));
#136=EDGE_LOOP('',(#54));
#137=FACE_BOUND('',#125,.T.);
#138=FACE_BOUND('',#126,.T.);
#139=FACE_BOUND('',#127,.T.);
#140=FACE_BOUND('',#128,.T.);
#141=FACE_BOUND('',#129,.T.);
#142=FACE_BOUND('',#130,.T.);
#143=FACE_BOUND('',#131,.T.);
#144=FACE_BOUND('',#132,.T.);
#145=FACE_BOUND('',#133,.T.);
#146=FACE_BOUND('',#134,.T.);
#147=FACE_BOUND('',#135,.T.);
#148=FACE_BOUND('',#136,.T.);
#149=PLANE('',#179);
#150=PLANE('',#180);
#151=PLANE('',#181);
#152=PLANE('',#182);
#153=PLANE('',#183);
#154=PLANE('',#184);
#155=PLANE('',#185);
#156=PLANE('',#187);
#157=ADVANCED_FACE('',(#137),#149,.F.);
#158=ADVANCED_FACE('',(#138),#150,.F.);
#159=ADVANCED_FACE('',(#139),#151,.F.);
#160=ADVANCED_FACE('',(#140),#152,.F.);
#161=ADVANCED_FACE('',(#141),#153,.F.);
#162=ADVANCED_FACE('',(#142),#154,.F.);
#163=ADVANCED_FACE('',(#143,#144),#155,.T.);
#164=ADVANCED_FACE('',(#145,#146),#156,.F.);
#165=ADVANCED_FACE('',(#147,#148),#12,.F.);
#166=CLOSED_SHELL('',(#157,#158,#159,#160,#161,#162,#163,#164,#165));
#167=STYLED_ITEM('',(#168),#175);
#168=PRESENTATION_STYLE_ASSIGNMENT((#169));
#169=SURFACE_STYLE_USAGE(.BOTH.,#170);
#170=SURFACE_SIDE_STYLE('',(#171));
#171=SURFACE_STYLE_FILL_AREA(#172);
#172=FILL_AREA_STYLE('',(#173));
#173=FILL_AREA_STYLE_COLOUR('',#174);
#174=COLOUR_RGB('',0.917647058823529,0.917647058823529,0.917647058823529);
#175=MANIFOLD_SOLID_BREP('Wheel Axle',#166);
#176=SHAPE_DEFINITION_REPRESENTATION(#282,#177);
#177=SHAPE_REPRESENTATION('Wheel Axle',(#178),#277);
#178=AXIS2_PLACEMENT_3D('',#232,#190,#191);
#179=AXIS2_PLACEMENT_3D('',#233,#192,#193);
#180=AXIS2_PLACEMENT_3D('',#242,#198,#199);
#181=AXIS2_PLACEMENT_3D('',#248,#203,#204);
#182=AXIS2_PLACEMENT_3D('',#254,#208,#209);
#183=AXIS2_PLACEMENT_3D('',#260,#213,#214);
#184=AXIS2_PLACEMENT_3D('',#266,#218,#219);
#185=AXIS2_PLACEMENT_3D('',#269,#222,#223);
#186=AXIS2_PLACEMENT_3D('',#270,#224,#225);
#187=AXIS2_PLACEMENT_3D('',#272,#226,#227);
#188=AXIS2_PLACEMENT_3D('',#273,#228,#229);
#189=AXIS2_PLACEMENT_3D('',#275,#230,#231);
#190=DIRECTION('',(0.,0.,1.));
#191=DIRECTION('',(1.,0.,0.));
#192=DIRECTION('',(-0.5,0.866025403784437,0.));
#193=DIRECTION('',(-0.866025403784438,-0.5,0.));
#194=DIRECTION('',(0.866025403784438,0.5,0.));
#195=DIRECTION('',(0.,0.,-1.));
#196=DIRECTION('',(0.866025403784438,0.5,0.));
#197=DIRECTION('',(0.,0.,-1.));
#198=DIRECTION('',(-1.,0.,0.));
#199=DIRECTION('',(0.,0.,1.));
#200=DIRECTION('',(0.,1.,0.));
#201=DIRECTION('',(0.,0.,-1.));
#202=DIRECTION('',(0.,1.,0.));
#203=DIRECTION('',(-0.5,-0.866025403784438,0.));
#204=DIRECTION('',(0.866025403784439,-0.5,0.));
#205=DIRECTION('',(-0.866025403784438,0.5,0.));
#206=DIRECTION('',(0.,0.,-1.));
#207=DIRECTION('',(-0.866025403784438,0.5,0.));
#208=DIRECTION('',(0.5,-0.866025403784439,0.));
#209=DIRECTION('',(0.866025403784439,0.5,0.));
#210=DIRECTION('',(-0.866025403784439,-0.5,0.));
#211=DIRECTION('',(0.,0.,-1.));
#212=DIRECTION('',(-0.866025403784439,-0.5,0.));
#213=DIRECTION('',(1.,0.,0.));
#214=DIRECTION('',(0.,0.,-1.));
#215=DIRECTION('',(0.,-1.,0.));
#216=DIRECTION('',(0.,0.,-1.));
#217=DIRECTION('',(0.,-1.,0.));
#218=DIRECTION('',(0.5,0.866025403784439,0.));
#219=DIRECTION('',(-0.866025403784439,0.5,0.));
#220=DIRECTION('',(0.866025403784439,-0.5,0.));
#221=DIRECTION('',(0.866025403784439,-0.5,0.));
#222=DIRECTION('',(0.,0.,1.));
#223=DIRECTION('',(1.,0.,0.));
#224=DIRECTION('',(0.,0.,1.));
#225=DIRECTION('',(1.,0.,0.));
#226=DIRECTION('',(0.,0.,1.));
#227=DIRECTION('',(1.,0.,0.));
#228=DIRECTION('',(0.,0.,1.));
#229=DIRECTION('',(1.,0.,0.));
#230=DIRECTION('',(0.,0.,1.));
#231=DIRECTION('',(1.,0.,0.));
#232=CARTESIAN_POINT('',(0.,0.,0.));
#233=CARTESIAN_POINT('',(0.0970773856163025,0.0616006681986661,0.141));
#234=CARTESIAN_POINT('',(0.0970773856163025,0.0616006681986661,0.069));
#235=CARTESIAN_POINT('',(0.0953773856163025,0.0606191727410437,0.069));
#236=CARTESIAN_POINT('',(0.0987773856163025,0.0625821636562885,0.069));
#237=CARTESIAN_POINT('',(0.0987773856163025,0.0625821636562885,0.141));
#238=CARTESIAN_POINT('',(0.0987773856163025,0.0625821636562885,0.141));
#239=CARTESIAN_POINT('',(0.0970773856163025,0.0616006681986661,0.141));
#240=CARTESIAN_POINT('',(0.0953773856163025,0.0606191727410437,0.141));
#241=CARTESIAN_POINT('',(0.0953773856163025,0.0606191727410437,0.141));
#242=CARTESIAN_POINT('',(0.0987773856163025,0.0645451545715332,0.141));
#243=CARTESIAN_POINT('',(0.0987773856163025,0.0645451545715332,0.069));
#244=CARTESIAN_POINT('',(0.0987773856163025,0.0665081454867779,0.069));
#245=CARTESIAN_POINT('',(0.0987773856163025,0.0665081454867779,0.141));
#246=CARTESIAN_POINT('',(0.0987773856163025,0.0665081454867779,0.141));
#247=CARTESIAN_POINT('',(0.0987773856163025,0.0645451545715332,0.141));
#248=CARTESIAN_POINT('',(0.0970773856163025,0.0674896409444003,0.141));
#249=CARTESIAN_POINT('',(0.0970773856163025,0.0674896409444003,0.069));
#250=CARTESIAN_POINT('',(0.0953773856163025,0.0684711364020226,0.069));
#251=CARTESIAN_POINT('',(0.0953773856163025,0.0684711364020226,0.141));
#252=CARTESIAN_POINT('',(0.0953773856163025,0.0684711364020226,0.141));
#253=CARTESIAN_POINT('',(0.0970773856163025,0.0674896409444003,0.141));
#254=CARTESIAN_POINT('',(0.0936773856163025,0.0674896409444003,0.141));
#255=CARTESIAN_POINT('',(0.0936773856163025,0.0674896409444003,0.069));
#256=CARTESIAN_POINT('',(0.0919773856163025,0.0665081454867779,0.069));
#257=CARTESIAN_POINT('',(0.0919773856163025,0.0665081454867779,0.141));
#258=CARTESIAN_POINT('',(0.0919773856163025,0.0665081454867779,0.141));
#259=CARTESIAN_POINT('',(0.0936773856163025,0.0674896409444003,0.141));
#260=CARTESIAN_POINT('',(0.0919773856163025,0.0645451545715332,0.141));
#261=CARTESIAN_POINT('',(0.0919773856163025,0.0645451545715332,0.069));
#262=CARTESIAN_POINT('',(0.0919773856163025,0.0625821636562885,0.069));
#263=CARTESIAN_POINT('',(0.0919773856163025,0.0625821636562885,0.141));
#264=CARTESIAN_POINT('',(0.0919773856163025,0.0625821636562885,0.141));
#265=CARTESIAN_POINT('',(0.0919773856163025,0.0645451545715332,0.141));
#266=CARTESIAN_POINT('',(0.0936773856163025,0.0616006681986661,0.141));
#267=CARTESIAN_POINT('',(0.0936773856163025,0.0616006681986661,0.069));
#268=CARTESIAN_POINT('',(0.0936773856163025,0.0616006681986661,0.141));
#269=CARTESIAN_POINT('',(0.0953773856163025,0.0645451545715332,0.141));
#270=CARTESIAN_POINT('',(0.0953773856163025,0.0645451545715332,0.141));
#271=CARTESIAN_POINT('',(0.0973773856163025,0.0645451545715332,0.141));
#272=CARTESIAN_POINT('',(0.0953773856163025,0.0645451545715332,0.069));
#273=CARTESIAN_POINT('',(0.0953773856163025,0.0645451545715332,0.069));
#274=CARTESIAN_POINT('',(0.0973773856163025,0.0645451545715332,0.069));
#275=CARTESIAN_POINT('',(0.0953773856163025,0.0645451545715332,0.0545));
#276=MECHANICAL_DESIGN_GEOMETRIC_PRESENTATION_REPRESENTATION('',(#167),
#277);
#277=(
GEOMETRIC_REPRESENTATION_CONTEXT(3)
GLOBAL_UNCERTAINTY_ASSIGNED_CONTEXT((#278))
GLOBAL_UNIT_ASSIGNED_CONTEXT((#281,#280,#279))
REPRESENTATION_CONTEXT('Wheel Axle','TOP_LEVEL_ASSEMBLY_PART')
);
#278=UNCERTAINTY_MEASURE_WITH_UNIT(LENGTH_MEASURE(1.E-8),#281,
'DISTANCE_ACCURACY_VALUE','Maximum Tolerance applied to model');
#279=(
NAMED_UNIT(*)
SI_UNIT($,.STERADIAN.)
SOLID_ANGLE_UNIT()
);
#280=(
NAMED_UNIT(*)
PLANE_ANGLE_UNIT()
SI_UNIT($,.RADIAN.)
);
#281=(
LENGTH_UNIT()
NAMED_UNIT(*)
SI_UNIT($,.METRE.)
);
#282=PRODUCT_DEFINITION_SHAPE('','',#283);
#283=PRODUCT_DEFINITION('','',#285,#284);
#284=PRODUCT_DEFINITION_CONTEXT('',#291,'design');
#285=PRODUCT_DEFINITION_FORMATION_WITH_SPECIFIED_SOURCE('','',#287,
 .NOT_KNOWN.);
#286=PRODUCT_RELATED_PRODUCT_CATEGORY('','',(#287));
#287=PRODUCT('Wheel Axle','Wheel Axle','Wheel Axle',(#289));
#288=PRODUCT_CATEGORY('','');
#289=PRODUCT_CONTEXT('',#291,'mechanical');
#290=APPLICATION_PROTOCOL_DEFINITION('international standard',
'ap242_managed_model_based_3d_engineering',2020,#291);
#291=APPLICATION_CONTEXT('managed model based 3d engineering');
ENDSEC;
END-ISO-10303-21;
