ISO-10303-21;
HEADER;
/* Generated by software containing ST-Developer
 * from STEP Tools, Inc. (www.steptools.com) 
 */
/* OPTION: using custom renumber hook */

FILE_DESCRIPTION(
/* description */ ('STEP AP242 Edition 2',
'CAx-IF Rec.Pracs.---Representation and Presentation of Product Manufa
cturing Information (PMI)---4.0---2014-10-13',
'CAx-IF Rec.Pracs.---3D Tessellated Geometry---0.4---2014-09-14','2;1',
'CAx-IF Rec.Pracs.---User Defined Attributes---1.5---2016-08-15'),
/* implementation_level */ '2;1');

FILE_NAME(
/* name */ 'Assembly 1 - Wheel Tire',
/* time_stamp */ '2026-08-23T18:37:23Z',
/* author */ (''),
/* organization */ (''),
/* preprocessor_version */ 'ST-DEVELOPER v20',
/* originating_system */ 'ONSHAPE BY PTC INC, 1.219',
/* authorisation */ '  ');

FILE_SCHEMA (('AP242_MANAGED_MODEL_BASED_3D_ENGINEERING_MIM_LF { 1 0 10303 442 3 1 4 }'));
ENDSEC;

DATA;
#10=SHAPE_REPRESENTATION_RELATIONSHIP('','',#1006,#11);
#11=ADVANCED_BREP_SHAPE_REPRESENTATION('',(#1004),#1749);
#12=CONICAL_SURFACE('',#1102,0.02465909090909,0.785398163397448);
#13=CONICAL_SURFACE('',#1105,0.02465909090909,0.785398163397448);
#14=CONICAL_SURFACE('',#1112,0.02465909090909,0.785398163397448);
#15=CONICAL_SURFACE('',#1115,0.02465909090909,0.785398163397448);
#16=CONICAL_SURFACE('',#1118,0.02465909090909,0.785398163397448);
#17=CONICAL_SURFACE('',#1121,0.02465909090909,0.785398163397448);
#18=CONICAL_SURFACE('',#1124,0.02465909090909,0.785398163397448);
#19=CONICAL_SURFACE('',#1127,0.02465909090909,0.785398163397448);
#20=CONICAL_SURFACE('',#1130,0.02465909090909,0.785398163397448);
#21=CONICAL_SURFACE('',#1132,0.02465909090909,0.785398163397448);
#22=CIRCLE('',#1010,0.002);
#23=CIRCLE('',#1011,0.002);
#24=CIRCLE('',#1014,0.002);
#25=CIRCLE('',#1015,0.002);
#26=CIRCLE('',#1018,0.002);
#27=CIRCLE('',#1019,0.002);
#28=CIRCLE('',#1021,0.0225000000000003);
#29=CIRCLE('',#1022,0.0225000000000003);
#30=CIRCLE('',#1024,0.002);
#31=CIRCLE('',#1025,0.002);
#32=CIRCLE('',#1028,0.002);
#33=CIRCLE('',#1029,0.002);
#34=CIRCLE('',#1032,0.002);
#35=CIRCLE('',#1033,0.002);
#36=CIRCLE('',#1036,0.002);
#37=CIRCLE('',#1037,0.002);
#38=CIRCLE('',#1039,0.0225000000000006);
#39=CIRCLE('',#1040,0.0225000000000006);
#40=CIRCLE('',#1042,0.002);
#41=CIRCLE('',#1043,0.002);
#42=CIRCLE('',#1046,0.002);
#43=CIRCLE('',#1047,0.002);
#44=CIRCLE('',#1050,0.002);
#45=CIRCLE('',#1051,0.002);
#46=CIRCLE('',#1054,0.002);
#47=CIRCLE('',#1055,0.002);
#48=CIRCLE('',#1057,0.0225000000000006);
#49=CIRCLE('',#1058,0.0225000000000006);
#50=CIRCLE('',#1060,0.002);
#51=CIRCLE('',#1061,0.002);
#52=CIRCLE('',#1064,0.002);
#53=CIRCLE('',#1065,0.002);
#54=CIRCLE('',#1068,0.002);
#55=CIRCLE('',#1069,0.002);
#56=CIRCLE('',#1072,0.002);
#57=CIRCLE('',#1073,0.002);
#58=CIRCLE('',#1075,0.0225);
#59=CIRCLE('',#1076,0.0225);
#60=CIRCLE('',#1078,0.002);
#61=CIRCLE('',#1079,0.002);
#62=CIRCLE('',#1082,0.002);
#63=CIRCLE('',#1083,0.002);
#64=CIRCLE('',#1086,0.002);
#65=CIRCLE('',#1087,0.002);
#66=CIRCLE('',#1090,0.002);
#67=CIRCLE('',#1091,0.002);
#68=CIRCLE('',#1093,0.0225);
#69=CIRCLE('',#1094,0.0225);
#70=CIRCLE('',#1096,0.002);
#71=CIRCLE('',#1097,0.002);
#72=CIRCLE('',#1099,0.02465909090909);
#73=CIRCLE('',#1101,0.02465909090909);
#74=CIRCLE('',#1103,0.02465909090909);
#75=CIRCLE('',#1104,0.02375);
#76=CIRCLE('',#1106,0.02465909090909);
#77=CIRCLE('',#1109,0.02465909090909);
#78=CIRCLE('',#1111,0.02465909090909);
#79=CIRCLE('',#1113,0.02375);
#80=CIRCLE('',#1114,0.02465909090909);
#81=CIRCLE('',#1117,0.02465909090909);
#82=CIRCLE('',#1119,0.02375);
#83=CIRCLE('',#1120,0.02465909090909);
#84=CIRCLE('',#1123,0.02465909090909);
#85=CIRCLE('',#1125,0.02375);
#86=CIRCLE('',#1126,0.02465909090909);
#87=CIRCLE('',#1129,0.02465909090909);
#88=CIRCLE('',#1131,0.02375);
#89=CYLINDRICAL_SURFACE('',#1009,0.002);
#90=CYLINDRICAL_SURFACE('',#1013,0.002);
#91=CYLINDRICAL_SURFACE('',#1017,0.002);
#92=CYLINDRICAL_SURFACE('',#1020,0.0225000000000003);
#93=CYLINDRICAL_SURFACE('',#1023,0.002);
#94=CYLINDRICAL_SURFACE('',#1027,0.002);
#95=CYLINDRICAL_SURFACE('',#1031,0.002);
#96=CYLINDRICAL_SURFACE('',#1035,0.002);
#97=CYLINDRICAL_SURFACE('',#1038,0.0225000000000006);
#98=CYLINDRICAL_SURFACE('',#1041,0.002);
#99=CYLINDRICAL_SURFACE('',#1045,0.002);
#100=CYLINDRICAL_SURFACE('',#1049,0.002);
#101=CYLINDRICAL_SURFACE('',#1053,0.002);
#102=CYLINDRICAL_SURFACE('',#1056,0.0225000000000006);
#103=CYLINDRICAL_SURFACE('',#1059,0.002);
#104=CYLINDRICAL_SURFACE('',#1063,0.002);
#105=CYLINDRICAL_SURFACE('',#1067,0.002);
#106=CYLINDRICAL_SURFACE('',#1071,0.002);
#107=CYLINDRICAL_SURFACE('',#1074,0.0225);
#108=CYLINDRICAL_SURFACE('',#1077,0.002);
#109=CYLINDRICAL_SURFACE('',#1081,0.002);
#110=CYLINDRICAL_SURFACE('',#1085,0.002);
#111=CYLINDRICAL_SURFACE('',#1089,0.002);
#112=CYLINDRICAL_SURFACE('',#1092,0.0225);
#113=CYLINDRICAL_SURFACE('',#1095,0.002);
#114=CYLINDRICAL_SURFACE('',#1107,0.02465909090909);
#115=CYLINDRICAL_SURFACE('',#1108,0.02465909090909);
#116=CYLINDRICAL_SURFACE('',#1110,0.02465909090909);
#117=CYLINDRICAL_SURFACE('',#1116,0.02465909090909);
#118=CYLINDRICAL_SURFACE('',#1122,0.02465909090909);
#119=CYLINDRICAL_SURFACE('',#1128,0.02465909090909);
#120=ORIENTED_EDGE('',*,*,#394,.T.);
#121=ORIENTED_EDGE('',*,*,#395,.F.);
#122=ORIENTED_EDGE('',*,*,#396,.F.);
#123=ORIENTED_EDGE('',*,*,#397,.T.);
#124=ORIENTED_EDGE('',*,*,#398,.T.);
#125=ORIENTED_EDGE('',*,*,#397,.F.);
#126=ORIENTED_EDGE('',*,*,#399,.F.);
#127=ORIENTED_EDGE('',*,*,#400,.T.);
#128=ORIENTED_EDGE('',*,*,#401,.F.);
#129=ORIENTED_EDGE('',*,*,#400,.F.);
#130=ORIENTED_EDGE('',*,*,#402,.T.);
#131=ORIENTED_EDGE('',*,*,#403,.T.);
#132=ORIENTED_EDGE('',*,*,#404,.T.);
#133=ORIENTED_EDGE('',*,*,#403,.F.);
#134=ORIENTED_EDGE('',*,*,#405,.F.);
#135=ORIENTED_EDGE('',*,*,#406,.T.);
#136=ORIENTED_EDGE('',*,*,#407,.F.);
#137=ORIENTED_EDGE('',*,*,#406,.F.);
#138=ORIENTED_EDGE('',*,*,#408,.T.);
#139=ORIENTED_EDGE('',*,*,#409,.T.);
#140=ORIENTED_EDGE('',*,*,#410,.T.);
#141=ORIENTED_EDGE('',*,*,#409,.F.);
#142=ORIENTED_EDGE('',*,*,#411,.F.);
#143=ORIENTED_EDGE('',*,*,#412,.T.);
#144=ORIENTED_EDGE('',*,*,#413,.T.);
#145=ORIENTED_EDGE('',*,*,#412,.F.);
#146=ORIENTED_EDGE('',*,*,#414,.F.);
#147=ORIENTED_EDGE('',*,*,#415,.T.);
#148=ORIENTED_EDGE('',*,*,#416,.T.);
#149=ORIENTED_EDGE('',*,*,#415,.F.);
#150=ORIENTED_EDGE('',*,*,#417,.F.);
#151=ORIENTED_EDGE('',*,*,#418,.T.);
#152=ORIENTED_EDGE('',*,*,#419,.T.);
#153=ORIENTED_EDGE('',*,*,#418,.F.);
#154=ORIENTED_EDGE('',*,*,#420,.F.);
#155=ORIENTED_EDGE('',*,*,#421,.T.);
#156=ORIENTED_EDGE('',*,*,#422,.T.);
#157=ORIENTED_EDGE('',*,*,#421,.F.);
#158=ORIENTED_EDGE('',*,*,#423,.F.);
#159=ORIENTED_EDGE('',*,*,#424,.T.);
#160=ORIENTED_EDGE('',*,*,#425,.F.);
#161=ORIENTED_EDGE('',*,*,#424,.F.);
#162=ORIENTED_EDGE('',*,*,#426,.T.);
#163=ORIENTED_EDGE('',*,*,#427,.T.);
#164=ORIENTED_EDGE('',*,*,#428,.T.);
#165=ORIENTED_EDGE('',*,*,#427,.F.);
#166=ORIENTED_EDGE('',*,*,#429,.F.);
#167=ORIENTED_EDGE('',*,*,#430,.T.);
#168=ORIENTED_EDGE('',*,*,#431,.F.);
#169=ORIENTED_EDGE('',*,*,#430,.F.);
#170=ORIENTED_EDGE('',*,*,#432,.T.);
#171=ORIENTED_EDGE('',*,*,#433,.T.);
#172=ORIENTED_EDGE('',*,*,#434,.T.);
#173=ORIENTED_EDGE('',*,*,#433,.F.);
#174=ORIENTED_EDGE('',*,*,#435,.F.);
#175=ORIENTED_EDGE('',*,*,#436,.T.);
#176=ORIENTED_EDGE('',*,*,#437,.T.);
#177=ORIENTED_EDGE('',*,*,#436,.F.);
#178=ORIENTED_EDGE('',*,*,#438,.F.);
#179=ORIENTED_EDGE('',*,*,#439,.T.);
#180=ORIENTED_EDGE('',*,*,#440,.T.);
#181=ORIENTED_EDGE('',*,*,#439,.F.);
#182=ORIENTED_EDGE('',*,*,#441,.F.);
#183=ORIENTED_EDGE('',*,*,#442,.T.);
#184=ORIENTED_EDGE('',*,*,#443,.T.);
#185=ORIENTED_EDGE('',*,*,#442,.F.);
#186=ORIENTED_EDGE('',*,*,#444,.F.);
#187=ORIENTED_EDGE('',*,*,#445,.T.);
#188=ORIENTED_EDGE('',*,*,#446,.T.);
#189=ORIENTED_EDGE('',*,*,#445,.F.);
#190=ORIENTED_EDGE('',*,*,#447,.F.);
#191=ORIENTED_EDGE('',*,*,#448,.T.);
#192=ORIENTED_EDGE('',*,*,#449,.F.);
#193=ORIENTED_EDGE('',*,*,#448,.F.);
#194=ORIENTED_EDGE('',*,*,#450,.T.);
#195=ORIENTED_EDGE('',*,*,#451,.T.);
#196=ORIENTED_EDGE('',*,*,#452,.T.);
#197=ORIENTED_EDGE('',*,*,#451,.F.);
#198=ORIENTED_EDGE('',*,*,#453,.F.);
#199=ORIENTED_EDGE('',*,*,#454,.T.);
#200=ORIENTED_EDGE('',*,*,#455,.F.);
#201=ORIENTED_EDGE('',*,*,#454,.F.);
#202=ORIENTED_EDGE('',*,*,#456,.T.);
#203=ORIENTED_EDGE('',*,*,#457,.T.);
#204=ORIENTED_EDGE('',*,*,#458,.T.);
#205=ORIENTED_EDGE('',*,*,#457,.F.);
#206=ORIENTED_EDGE('',*,*,#459,.F.);
#207=ORIENTED_EDGE('',*,*,#460,.T.);
#208=ORIENTED_EDGE('',*,*,#461,.T.);
#209=ORIENTED_EDGE('',*,*,#460,.F.);
#210=ORIENTED_EDGE('',*,*,#462,.F.);
#211=ORIENTED_EDGE('',*,*,#463,.T.);
#212=ORIENTED_EDGE('',*,*,#464,.T.);
#213=ORIENTED_EDGE('',*,*,#463,.F.);
#214=ORIENTED_EDGE('',*,*,#465,.F.);
#215=ORIENTED_EDGE('',*,*,#466,.T.);
#216=ORIENTED_EDGE('',*,*,#467,.T.);
#217=ORIENTED_EDGE('',*,*,#466,.F.);
#218=ORIENTED_EDGE('',*,*,#468,.F.);
#219=ORIENTED_EDGE('',*,*,#469,.T.);
#220=ORIENTED_EDGE('',*,*,#470,.T.);
#221=ORIENTED_EDGE('',*,*,#469,.F.);
#222=ORIENTED_EDGE('',*,*,#471,.F.);
#223=ORIENTED_EDGE('',*,*,#472,.T.);
#224=ORIENTED_EDGE('',*,*,#473,.F.);
#225=ORIENTED_EDGE('',*,*,#472,.F.);
#226=ORIENTED_EDGE('',*,*,#474,.T.);
#227=ORIENTED_EDGE('',*,*,#475,.T.);
#228=ORIENTED_EDGE('',*,*,#476,.T.);
#229=ORIENTED_EDGE('',*,*,#475,.F.);
#230=ORIENTED_EDGE('',*,*,#477,.F.);
#231=ORIENTED_EDGE('',*,*,#478,.T.);
#232=ORIENTED_EDGE('',*,*,#479,.F.);
#233=ORIENTED_EDGE('',*,*,#478,.F.);
#234=ORIENTED_EDGE('',*,*,#480,.T.);
#235=ORIENTED_EDGE('',*,*,#481,.T.);
#236=ORIENTED_EDGE('',*,*,#482,.T.);
#237=ORIENTED_EDGE('',*,*,#481,.F.);
#238=ORIENTED_EDGE('',*,*,#483,.F.);
#239=ORIENTED_EDGE('',*,*,#484,.T.);
#240=ORIENTED_EDGE('',*,*,#485,.T.);
#241=ORIENTED_EDGE('',*,*,#484,.F.);
#242=ORIENTED_EDGE('',*,*,#486,.F.);
#243=ORIENTED_EDGE('',*,*,#487,.T.);
#244=ORIENTED_EDGE('',*,*,#488,.T.);
#245=ORIENTED_EDGE('',*,*,#487,.F.);
#246=ORIENTED_EDGE('',*,*,#489,.F.);
#247=ORIENTED_EDGE('',*,*,#490,.T.);
#248=ORIENTED_EDGE('',*,*,#491,.T.);
#249=ORIENTED_EDGE('',*,*,#490,.F.);
#250=ORIENTED_EDGE('',*,*,#492,.F.);
#251=ORIENTED_EDGE('',*,*,#493,.T.);
#252=ORIENTED_EDGE('',*,*,#494,.T.);
#253=ORIENTED_EDGE('',*,*,#493,.F.);
#254=ORIENTED_EDGE('',*,*,#495,.F.);
#255=ORIENTED_EDGE('',*,*,#496,.T.);
#256=ORIENTED_EDGE('',*,*,#497,.F.);
#257=ORIENTED_EDGE('',*,*,#496,.F.);
#258=ORIENTED_EDGE('',*,*,#498,.T.);
#259=ORIENTED_EDGE('',*,*,#499,.T.);
#260=ORIENTED_EDGE('',*,*,#500,.T.);
#261=ORIENTED_EDGE('',*,*,#499,.F.);
#262=ORIENTED_EDGE('',*,*,#501,.F.);
#263=ORIENTED_EDGE('',*,*,#502,.T.);
#264=ORIENTED_EDGE('',*,*,#503,.F.);
#265=ORIENTED_EDGE('',*,*,#502,.F.);
#266=ORIENTED_EDGE('',*,*,#504,.T.);
#267=ORIENTED_EDGE('',*,*,#505,.T.);
#268=ORIENTED_EDGE('',*,*,#506,.T.);
#269=ORIENTED_EDGE('',*,*,#505,.F.);
#270=ORIENTED_EDGE('',*,*,#507,.F.);
#271=ORIENTED_EDGE('',*,*,#508,.T.);
#272=ORIENTED_EDGE('',*,*,#509,.T.);
#273=ORIENTED_EDGE('',*,*,#508,.F.);
#274=ORIENTED_EDGE('',*,*,#510,.F.);
#275=ORIENTED_EDGE('',*,*,#511,.T.);
#276=ORIENTED_EDGE('',*,*,#512,.T.);
#277=ORIENTED_EDGE('',*,*,#511,.F.);
#278=ORIENTED_EDGE('',*,*,#513,.F.);
#279=ORIENTED_EDGE('',*,*,#395,.T.);
#280=ORIENTED_EDGE('',*,*,#514,.T.);
#281=ORIENTED_EDGE('',*,*,#396,.T.);
#282=ORIENTED_EDGE('',*,*,#513,.T.);
#283=ORIENTED_EDGE('',*,*,#510,.T.);
#284=ORIENTED_EDGE('',*,*,#507,.T.);
#285=ORIENTED_EDGE('',*,*,#504,.F.);
#286=ORIENTED_EDGE('',*,*,#501,.T.);
#287=ORIENTED_EDGE('',*,*,#498,.F.);
#288=ORIENTED_EDGE('',*,*,#495,.T.);
#289=ORIENTED_EDGE('',*,*,#492,.T.);
#290=ORIENTED_EDGE('',*,*,#489,.T.);
#291=ORIENTED_EDGE('',*,*,#486,.T.);
#292=ORIENTED_EDGE('',*,*,#483,.T.);
#293=ORIENTED_EDGE('',*,*,#480,.F.);
#294=ORIENTED_EDGE('',*,*,#477,.T.);
#295=ORIENTED_EDGE('',*,*,#474,.F.);
#296=ORIENTED_EDGE('',*,*,#471,.T.);
#297=ORIENTED_EDGE('',*,*,#468,.T.);
#298=ORIENTED_EDGE('',*,*,#465,.T.);
#299=ORIENTED_EDGE('',*,*,#462,.T.);
#300=ORIENTED_EDGE('',*,*,#459,.T.);
#301=ORIENTED_EDGE('',*,*,#456,.F.);
#302=ORIENTED_EDGE('',*,*,#453,.T.);
#303=ORIENTED_EDGE('',*,*,#450,.F.);
#304=ORIENTED_EDGE('',*,*,#447,.T.);
#305=ORIENTED_EDGE('',*,*,#444,.T.);
#306=ORIENTED_EDGE('',*,*,#441,.T.);
#307=ORIENTED_EDGE('',*,*,#438,.T.);
#308=ORIENTED_EDGE('',*,*,#435,.T.);
#309=ORIENTED_EDGE('',*,*,#432,.F.);
#310=ORIENTED_EDGE('',*,*,#429,.T.);
#311=ORIENTED_EDGE('',*,*,#426,.F.);
#312=ORIENTED_EDGE('',*,*,#423,.T.);
#313=ORIENTED_EDGE('',*,*,#420,.T.);
#314=ORIENTED_EDGE('',*,*,#417,.T.);
#315=ORIENTED_EDGE('',*,*,#414,.T.);
#316=ORIENTED_EDGE('',*,*,#411,.T.);
#317=ORIENTED_EDGE('',*,*,#408,.F.);
#318=ORIENTED_EDGE('',*,*,#405,.T.);
#319=ORIENTED_EDGE('',*,*,#402,.F.);
#320=ORIENTED_EDGE('',*,*,#399,.T.);
#321=ORIENTED_EDGE('',*,*,#515,.F.);
#322=ORIENTED_EDGE('',*,*,#394,.F.);
#323=ORIENTED_EDGE('',*,*,#398,.F.);
#324=ORIENTED_EDGE('',*,*,#401,.T.);
#325=ORIENTED_EDGE('',*,*,#404,.F.);
#326=ORIENTED_EDGE('',*,*,#407,.T.);
#327=ORIENTED_EDGE('',*,*,#410,.F.);
#328=ORIENTED_EDGE('',*,*,#413,.F.);
#329=ORIENTED_EDGE('',*,*,#416,.F.);
#330=ORIENTED_EDGE('',*,*,#419,.F.);
#331=ORIENTED_EDGE('',*,*,#422,.F.);
#332=ORIENTED_EDGE('',*,*,#425,.T.);
#333=ORIENTED_EDGE('',*,*,#428,.F.);
#334=ORIENTED_EDGE('',*,*,#431,.T.);
#335=ORIENTED_EDGE('',*,*,#434,.F.);
#336=ORIENTED_EDGE('',*,*,#437,.F.);
#337=ORIENTED_EDGE('',*,*,#440,.F.);
#338=ORIENTED_EDGE('',*,*,#443,.F.);
#339=ORIENTED_EDGE('',*,*,#446,.F.);
#340=ORIENTED_EDGE('',*,*,#449,.T.);
#341=ORIENTED_EDGE('',*,*,#452,.F.);
#342=ORIENTED_EDGE('',*,*,#455,.T.);
#343=ORIENTED_EDGE('',*,*,#458,.F.);
#344=ORIENTED_EDGE('',*,*,#461,.F.);
#345=ORIENTED_EDGE('',*,*,#464,.F.);
#346=ORIENTED_EDGE('',*,*,#467,.F.);
#347=ORIENTED_EDGE('',*,*,#470,.F.);
#348=ORIENTED_EDGE('',*,*,#473,.T.);
#349=ORIENTED_EDGE('',*,*,#476,.F.);
#350=ORIENTED_EDGE('',*,*,#479,.T.);
#351=ORIENTED_EDGE('',*,*,#482,.F.);
#352=ORIENTED_EDGE('',*,*,#485,.F.);
#353=ORIENTED_EDGE('',*,*,#488,.F.);
#354=ORIENTED_EDGE('',*,*,#491,.F.);
#355=ORIENTED_EDGE('',*,*,#494,.F.);
#356=ORIENTED_EDGE('',*,*,#497,.T.);
#357=ORIENTED_EDGE('',*,*,#500,.F.);
#358=ORIENTED_EDGE('',*,*,#503,.T.);
#359=ORIENTED_EDGE('',*,*,#506,.F.);
#360=ORIENTED_EDGE('',*,*,#509,.F.);
#361=ORIENTED_EDGE('',*,*,#512,.F.);
#362=ORIENTED_EDGE('',*,*,#516,.F.);
#363=ORIENTED_EDGE('',*,*,#517,.F.);
#364=ORIENTED_EDGE('',*,*,#517,.T.);
#365=ORIENTED_EDGE('',*,*,#518,.F.);
#366=ORIENTED_EDGE('',*,*,#518,.T.);
#367=ORIENTED_EDGE('',*,*,#514,.F.);
#368=ORIENTED_EDGE('',*,*,#515,.T.);
#369=ORIENTED_EDGE('',*,*,#519,.F.);
#370=ORIENTED_EDGE('',*,*,#516,.T.);
#371=ORIENTED_EDGE('',*,*,#520,.F.);
#372=ORIENTED_EDGE('',*,*,#521,.T.);
#373=ORIENTED_EDGE('',*,*,#522,.T.);
#374=ORIENTED_EDGE('',*,*,#519,.T.);
#375=ORIENTED_EDGE('',*,*,#521,.F.);
#376=ORIENTED_EDGE('',*,*,#522,.F.);
#377=ORIENTED_EDGE('',*,*,#523,.F.);
#378=ORIENTED_EDGE('',*,*,#524,.T.);
#379=ORIENTED_EDGE('',*,*,#525,.T.);
#380=ORIENTED_EDGE('',*,*,#523,.T.);
#381=ORIENTED_EDGE('',*,*,#524,.F.);
#382=ORIENTED_EDGE('',*,*,#525,.F.);
#383=ORIENTED_EDGE('',*,*,#526,.F.);
#384=ORIENTED_EDGE('',*,*,#527,.T.);
#385=ORIENTED_EDGE('',*,*,#528,.T.);
#386=ORIENTED_EDGE('',*,*,#526,.T.);
#387=ORIENTED_EDGE('',*,*,#527,.F.);
#388=ORIENTED_EDGE('',*,*,#528,.F.);
#389=ORIENTED_EDGE('',*,*,#529,.F.);
#390=ORIENTED_EDGE('',*,*,#530,.T.);
#391=ORIENTED_EDGE('',*,*,#520,.T.);
#392=ORIENTED_EDGE('',*,*,#529,.T.);
#393=ORIENTED_EDGE('',*,*,#530,.F.);
#394=EDGE_CURVE('',#531,#532,#628,.T.);
#395=EDGE_CURVE('',#533,#532,#629,.T.);
#396=EDGE_CURVE('',#534,#533,#630,.T.);
#397=EDGE_CURVE('',#534,#531,#631,.T.);
#398=EDGE_CURVE('',#535,#531,#22,.F.);
#399=EDGE_CURVE('',#536,#534,#23,.F.);
#400=EDGE_CURVE('',#536,#535,#632,.T.);
#401=EDGE_CURVE('',#535,#537,#633,.T.);
#402=EDGE_CURVE('',#536,#538,#634,.T.);
#403=EDGE_CURVE('',#538,#537,#635,.T.);
#404=EDGE_CURVE('',#539,#537,#24,.F.);
#405=EDGE_CURVE('',#540,#538,#25,.F.);
#406=EDGE_CURVE('',#540,#539,#636,.T.);
#407=EDGE_CURVE('',#539,#541,#637,.T.);
#408=EDGE_CURVE('',#540,#542,#638,.T.);
#409=EDGE_CURVE('',#542,#541,#639,.T.);
#410=EDGE_CURVE('',#543,#541,#26,.T.);
#411=EDGE_CURVE('',#544,#542,#27,.T.);
#412=EDGE_CURVE('',#544,#543,#640,.T.);
#413=EDGE_CURVE('',#545,#543,#28,.T.);
#414=EDGE_CURVE('',#546,#544,#29,.T.);
#415=EDGE_CURVE('',#546,#545,#641,.T.);
#416=EDGE_CURVE('',#547,#545,#30,.T.);
#417=EDGE_CURVE('',#548,#546,#31,.T.);
#418=EDGE_CURVE('',#548,#547,#642,.T.);
#419=EDGE_CURVE('',#549,#547,#643,.T.);
#420=EDGE_CURVE('',#550,#548,#644,.T.);
#421=EDGE_CURVE('',#550,#549,#645,.T.);
#422=EDGE_CURVE('',#551,#549,#32,.F.);
#423=EDGE_CURVE('',#552,#550,#33,.F.);
#424=EDGE_CURVE('',#552,#551,#646,.T.);
#425=EDGE_CURVE('',#551,#553,#647,.T.);
#426=EDGE_CURVE('',#552,#554,#648,.T.);
#427=EDGE_CURVE('',#554,#553,#649,.T.);
#428=EDGE_CURVE('',#555,#553,#34,.F.);
#429=EDGE_CURVE('',#556,#554,#35,.F.);
#430=EDGE_CURVE('',#556,#555,#650,.T.);
#431=EDGE_CURVE('',#555,#557,#651,.T.);
#432=EDGE_CURVE('',#556,#558,#652,.T.);
#433=EDGE_CURVE('',#558,#557,#653,.T.);
#434=EDGE_CURVE('',#559,#557,#36,.T.);
#435=EDGE_CURVE('',#560,#558,#37,.T.);
#436=EDGE_CURVE('',#560,#559,#654,.T.);
#437=EDGE_CURVE('',#561,#559,#38,.T.);
#438=EDGE_CURVE('',#562,#560,#39,.T.);
#439=EDGE_CURVE('',#562,#561,#655,.T.);
#440=EDGE_CURVE('',#563,#561,#40,.T.);
#441=EDGE_CURVE('',#564,#562,#41,.T.);
#442=EDGE_CURVE('',#564,#563,#656,.T.);
#443=EDGE_CURVE('',#565,#563,#657,.T.);
#444=EDGE_CURVE('',#566,#564,#658,.T.);
#445=EDGE_CURVE('',#566,#565,#659,.T.);
#446=EDGE_CURVE('',#567,#565,#42,.F.);
#447=EDGE_CURVE('',#568,#566,#43,.F.);
#448=EDGE_CURVE('',#568,#567,#660,.T.);
#449=EDGE_CURVE('',#567,#569,#661,.T.);
#450=EDGE_CURVE('',#568,#570,#662,.T.);
#451=EDGE_CURVE('',#570,#569,#663,.T.);
#452=EDGE_CURVE('',#571,#569,#44,.F.);
#453=EDGE_CURVE('',#572,#570,#45,.F.);
#454=EDGE_CURVE('',#572,#571,#664,.T.);
#455=EDGE_CURVE('',#571,#573,#665,.T.);
#456=EDGE_CURVE('',#572,#574,#666,.T.);
#457=EDGE_CURVE('',#574,#573,#667,.T.);
#458=EDGE_CURVE('',#575,#573,#46,.T.);
#459=EDGE_CURVE('',#576,#574,#47,.T.);
#460=EDGE_CURVE('',#576,#575,#668,.T.);
#461=EDGE_CURVE('',#577,#575,#48,.T.);
#462=EDGE_CURVE('',#578,#576,#49,.T.);
#463=EDGE_CURVE('',#578,#577,#669,.T.);
#464=EDGE_CURVE('',#579,#577,#50,.T.);
#465=EDGE_CURVE('',#580,#578,#51,.T.);
#466=EDGE_CURVE('',#580,#579,#670,.T.);
#467=EDGE_CURVE('',#581,#579,#671,.T.);
#468=EDGE_CURVE('',#582,#580,#672,.T.);
#469=EDGE_CURVE('',#582,#581,#673,.T.);
#470=EDGE_CURVE('',#583,#581,#52,.F.);
#471=EDGE_CURVE('',#584,#582,#53,.F.);
#472=EDGE_CURVE('',#584,#583,#674,.T.);
#473=EDGE_CURVE('',#583,#585,#675,.T.);
#474=EDGE_CURVE('',#584,#586,#676,.T.);
#475=EDGE_CURVE('',#586,#585,#677,.T.);
#476=EDGE_CURVE('',#587,#585,#54,.F.);
#477=EDGE_CURVE('',#588,#586,#55,.F.);
#478=EDGE_CURVE('',#588,#587,#678,.T.);
#479=EDGE_CURVE('',#587,#589,#679,.T.);
#480=EDGE_CURVE('',#588,#590,#680,.T.);
#481=EDGE_CURVE('',#590,#589,#681,.T.);
#482=EDGE_CURVE('',#591,#589,#56,.T.);
#483=EDGE_CURVE('',#592,#590,#57,.T.);
#484=EDGE_CURVE('',#592,#591,#682,.T.);
#485=EDGE_CURVE('',#593,#591,#58,.T.);
#486=EDGE_CURVE('',#594,#592,#59,.T.);
#487=EDGE_CURVE('',#594,#593,#683,.T.);
#488=EDGE_CURVE('',#595,#593,#60,.T.);
#489=EDGE_CURVE('',#596,#594,#61,.T.);
#490=EDGE_CURVE('',#596,#595,#684,.T.);
#491=EDGE_CURVE('',#597,#595,#685,.T.);
#492=EDGE_CURVE('',#598,#596,#686,.T.);
#493=EDGE_CURVE('',#598,#597,#687,.T.);
#494=EDGE_CURVE('',#599,#597,#62,.F.);
#495=EDGE_CURVE('',#600,#598,#63,.F.);
#496=EDGE_CURVE('',#600,#599,#688,.T.);
#497=EDGE_CURVE('',#599,#601,#689,.T.);
#498=EDGE_CURVE('',#600,#602,#690,.T.);
#499=EDGE_CURVE('',#602,#601,#691,.T.);
#500=EDGE_CURVE('',#603,#601,#64,.F.);
#501=EDGE_CURVE('',#604,#602,#65,.F.);
#502=EDGE_CURVE('',#604,#603,#692,.T.);
#503=EDGE_CURVE('',#603,#605,#693,.T.);
#504=EDGE_CURVE('',#604,#606,#694,.T.);
#505=EDGE_CURVE('',#606,#605,#695,.T.);
#506=EDGE_CURVE('',#607,#605,#66,.T.);
#507=EDGE_CURVE('',#608,#606,#67,.T.);
#508=EDGE_CURVE('',#608,#607,#696,.T.);
#509=EDGE_CURVE('',#609,#607,#68,.T.);
#510=EDGE_CURVE('',#610,#608,#69,.T.);
#511=EDGE_CURVE('',#610,#609,#697,.T.);
#512=EDGE_CURVE('',#532,#609,#70,.T.);
#513=EDGE_CURVE('',#533,#610,#71,.T.);
#514=EDGE_CURVE('',#611,#611,#72,.F.);
#515=EDGE_CURVE('',#612,#612,#73,.F.);
#516=EDGE_CURVE('',#613,#613,#74,.T.);
#517=EDGE_CURVE('',#614,#614,#75,.F.);
#518=EDGE_CURVE('',#615,#615,#76,.F.);
#519=EDGE_CURVE('',#616,#616,#77,.F.);
#520=EDGE_CURVE('',#617,#617,#78,.F.);
#521=EDGE_CURVE('',#618,#618,#79,.F.);
#522=EDGE_CURVE('',#619,#619,#80,.F.);
#523=EDGE_CURVE('',#620,#620,#81,.F.);
#524=EDGE_CURVE('',#621,#621,#82,.F.);
#525=EDGE_CURVE('',#622,#622,#83,.F.);
#526=EDGE_CURVE('',#623,#623,#84,.F.);
#527=EDGE_CURVE('',#624,#624,#85,.F.);
#528=EDGE_CURVE('',#625,#625,#86,.F.);
#529=EDGE_CURVE('',#626,#626,#87,.F.);
#530=EDGE_CURVE('',#627,#627,#88,.F.);
#531=VERTEX_POINT('',#1458);
#532=VERTEX_POINT('',#1459);
#533=VERTEX_POINT('',#1461);
#534=VERTEX_POINT('',#1463);
#535=VERTEX_POINT('',#1467);
#536=VERTEX_POINT('',#1469);
#537=VERTEX_POINT('',#1473);
#538=VERTEX_POINT('',#1475);
#539=VERTEX_POINT('',#1479);
#540=VERTEX_POINT('',#1481);
#541=VERTEX_POINT('',#1485);
#542=VERTEX_POINT('',#1487);
#543=VERTEX_POINT('',#1491);
#544=VERTEX_POINT('',#1493);
#545=VERTEX_POINT('',#1497);
#546=VERTEX_POINT('',#1499);
#547=VERTEX_POINT('',#1503);
#548=VERTEX_POINT('',#1505);
#549=VERTEX_POINT('',#1509);
#550=VERTEX_POINT('',#1511);
#551=VERTEX_POINT('',#1515);
#552=VERTEX_POINT('',#1517);
#553=VERTEX_POINT('',#1521);
#554=VERTEX_POINT('',#1523);
#555=VERTEX_POINT('',#1527);
#556=VERTEX_POINT('',#1529);
#557=VERTEX_POINT('',#1533);
#558=VERTEX_POINT('',#1535);
#559=VERTEX_POINT('',#1539);
#560=VERTEX_POINT('',#1541);
#561=VERTEX_POINT('',#1545);
#562=VERTEX_POINT('',#1547);
#563=VERTEX_POINT('',#1551);
#564=VERTEX_POINT('',#1553);
#565=VERTEX_POINT('',#1557);
#566=VERTEX_POINT('',#1559);
#567=VERTEX_POINT('',#1563);
#568=VERTEX_POINT('',#1565);
#569=VERTEX_POINT('',#1569);
#570=VERTEX_POINT('',#1571);
#571=VERTEX_POINT('',#1575);
#572=VERTEX_POINT('',#1577);
#573=VERTEX_POINT('',#1581);
#574=VERTEX_POINT('',#1583);
#575=VERTEX_POINT('',#1587);
#576=VERTEX_POINT('',#1589);
#577=VERTEX_POINT('',#1593);
#578=VERTEX_POINT('',#1595);
#579=VERTEX_POINT('',#1599);
#580=VERTEX_POINT('',#1601);
#581=VERTEX_POINT('',#1605);
#582=VERTEX_POINT('',#1607);
#583=VERTEX_POINT('',#1611);
#584=VERTEX_POINT('',#1613);
#585=VERTEX_POINT('',#1617);
#586=VERTEX_POINT('',#1619);
#587=VERTEX_POINT('',#1623);
#588=VERTEX_POINT('',#1625);
#589=VERTEX_POINT('',#1629);
#590=VERTEX_POINT('',#1631);
#591=VERTEX_POINT('',#1635);
#592=VERTEX_POINT('',#1637);
#593=VERTEX_POINT('',#1641);
#594=VERTEX_POINT('',#1643);
#595=VERTEX_POINT('',#1647);
#596=VERTEX_POINT('',#1649);
#597=VERTEX_POINT('',#1653);
#598=VERTEX_POINT('',#1655);
#599=VERTEX_POINT('',#1659);
#600=VERTEX_POINT('',#1661);
#601=VERTEX_POINT('',#1665);
#602=VERTEX_POINT('',#1667);
#603=VERTEX_POINT('',#1671);
#604=VERTEX_POINT('',#1673);
#605=VERTEX_POINT('',#1677);
#606=VERTEX_POINT('',#1679);
#607=VERTEX_POINT('',#1683);
#608=VERTEX_POINT('',#1685);
#609=VERTEX_POINT('',#1689);
#610=VERTEX_POINT('',#1691);
#611=VERTEX_POINT('',#1698);
#612=VERTEX_POINT('',#1701);
#613=VERTEX_POINT('',#1704);
#614=VERTEX_POINT('',#1706);
#615=VERTEX_POINT('',#1709);
#616=VERTEX_POINT('',#1713);
#617=VERTEX_POINT('',#1716);
#618=VERTEX_POINT('',#1719);
#619=VERTEX_POINT('',#1721);
#620=VERTEX_POINT('',#1725);
#621=VERTEX_POINT('',#1728);
#622=VERTEX_POINT('',#1730);
#623=VERTEX_POINT('',#1734);
#624=VERTEX_POINT('',#1737);
#625=VERTEX_POINT('',#1739);
#626=VERTEX_POINT('',#1743);
#627=VERTEX_POINT('',#1746);
#628=LINE('',#1457,#698);
#629=LINE('',#1460,#699);
#630=LINE('',#1462,#700);
#631=LINE('',#1464,#701);
#632=LINE('',#1470,#702);
#633=LINE('',#1472,#703);
#634=LINE('',#1474,#704);
#635=LINE('',#1476,#705);
#636=LINE('',#1482,#706);
#637=LINE('',#1484,#707);
#638=LINE('',#1486,#708);
#639=LINE('',#1488,#709);
#640=LINE('',#1494,#710);
#641=LINE('',#1500,#711);
#642=LINE('',#1506,#712);
#643=LINE('',#1508,#713);
#644=LINE('',#1510,#714);
#645=LINE('',#1512,#715);
#646=LINE('',#1518,#716);
#647=LINE('',#1520,#717);
#648=LINE('',#1522,#718);
#649=LINE('',#1524,#719);
#650=LINE('',#1530,#720);
#651=LINE('',#1532,#721);
#652=LINE('',#1534,#722);
#653=LINE('',#1536,#723);
#654=LINE('',#1542,#724);
#655=LINE('',#1548,#725);
#656=LINE('',#1554,#726);
#657=LINE('',#1556,#727);
#658=LINE('',#1558,#728);
#659=LINE('',#1560,#729);
#660=LINE('',#1566,#730);
#661=LINE('',#1568,#731);
#662=LINE('',#1570,#732);
#663=LINE('',#1572,#733);
#664=LINE('',#1578,#734);
#665=LINE('',#1580,#735);
#666=LINE('',#1582,#736);
#667=LINE('',#1584,#737);
#668=LINE('',#1590,#738);
#669=LINE('',#1596,#739);
#670=LINE('',#1602,#740);
#671=LINE('',#1604,#741);
#672=LINE('',#1606,#742);
#673=LINE('',#1608,#743);
#674=LINE('',#1614,#744);
#675=LINE('',#1616,#745);
#676=LINE('',#1618,#746);
#677=LINE('',#1620,#747);
#678=LINE('',#1626,#748);
#679=LINE('',#1628,#749);
#680=LINE('',#1630,#750);
#681=LINE('',#1632,#751);
#682=LINE('',#1638,#752);
#683=LINE('',#1644,#753);
#684=LINE('',#1650,#754);
#685=LINE('',#1652,#755);
#686=LINE('',#1654,#756);
#687=LINE('',#1656,#757);
#688=LINE('',#1662,#758);
#689=LINE('',#1664,#759);
#690=LINE('',#1666,#760);
#691=LINE('',#1668,#761);
#692=LINE('',#1674,#762);
#693=LINE('',#1676,#763);
#694=LINE('',#1678,#764);
#695=LINE('',#1680,#765);
#696=LINE('',#1686,#766);
#697=LINE('',#1692,#767);
#698=VECTOR('',#1137,1.);
#699=VECTOR('',#1138,1.);
#700=VECTOR('',#1139,1.);
#701=VECTOR('',#1140,1.);
#702=VECTOR('',#1147,1.);
#703=VECTOR('',#1150,1.);
#704=VECTOR('',#1151,1.);
#705=VECTOR('',#1152,1.);
#706=VECTOR('',#1159,1.);
#707=VECTOR('',#1162,1.);
#708=VECTOR('',#1163,1.);
#709=VECTOR('',#1164,1.);
#710=VECTOR('',#1171,1.);
#711=VECTOR('',#1178,1.);
#712=VECTOR('',#1185,1.);
#713=VECTOR('',#1188,1.);
#714=VECTOR('',#1189,1.);
#715=VECTOR('',#1190,1.);
#716=VECTOR('',#1197,1.);
#717=VECTOR('',#1200,1.);
#718=VECTOR('',#1201,1.);
#719=VECTOR('',#1202,1.);
#720=VECTOR('',#1209,1.);
#721=VECTOR('',#1212,1.);
#722=VECTOR('',#1213,1.);
#723=VECTOR('',#1214,1.);
#724=VECTOR('',#1221,1.);
#725=VECTOR('',#1228,1.);
#726=VECTOR('',#1235,1.);
#727=VECTOR('',#1238,1.);
#728=VECTOR('',#1239,1.);
#729=VECTOR('',#1240,1.);
#730=VECTOR('',#1247,1.);
#731=VECTOR('',#1250,1.);
#732=VECTOR('',#1251,1.);
#733=VECTOR('',#1252,1.);
#734=VECTOR('',#1259,1.);
#735=VECTOR('',#1262,1.);
#736=VECTOR('',#1263,1.);
#737=VECTOR('',#1264,1.);
#738=VECTOR('',#1271,1.);
#739=VECTOR('',#1278,1.);
#740=VECTOR('',#1285,1.);
#741=VECTOR('',#1288,1.);
#742=VECTOR('',#1289,1.);
#743=VECTOR('',#1290,1.);
#744=VECTOR('',#1297,1.);
#745=VECTOR('',#1300,1.);
#746=VECTOR('',#1301,1.);
#747=VECTOR('',#1302,1.);
#748=VECTOR('',#1309,1.);
#749=VECTOR('',#1312,1.);
#750=VECTOR('',#1313,1.);
#751=VECTOR('',#1314,1.);
#752=VECTOR('',#1321,1.);
#753=VECTOR('',#1328,1.);
#754=VECTOR('',#1335,1.);
#755=VECTOR('',#1338,1.);
#756=VECTOR('',#1339,1.);
#757=VECTOR('',#1340,1.);
#758=VECTOR('',#1347,1.);
#759=VECTOR('',#1350,1.);
#760=VECTOR('',#1351,1.);
#761=VECTOR('',#1352,1.);
#762=VECTOR('',#1359,1.);
#763=VECTOR('',#1362,1.);
#764=VECTOR('',#1363,1.);
#765=VECTOR('',#1364,1.);
#766=VECTOR('',#1371,1.);
#767=VECTOR('',#1378,1.);
#768=EDGE_LOOP('',(#120,#121,#122,#123));
#769=EDGE_LOOP('',(#124,#125,#126,#127));
#770=EDGE_LOOP('',(#128,#129,#130,#131));
#771=EDGE_LOOP('',(#132,#133,#134,#135));
#772=EDGE_LOOP('',(#136,#137,#138,#139));
#773=EDGE_LOOP('',(#140,#141,#142,#143));
#774=EDGE_LOOP('',(#144,#145,#146,#147));
#775=EDGE_LOOP('',(#148,#149,#150,#151));
#776=EDGE_LOOP('',(#152,#153,#154,#155));
#777=EDGE_LOOP('',(#156,#157,#158,#159));
#778=EDGE_LOOP('',(#160,#161,#162,#163));
#779=EDGE_LOOP('',(#164,#165,#166,#167));
#780=EDGE_LOOP('',(#168,#169,#170,#171));
#781=EDGE_LOOP('',(#172,#173,#174,#175));
#782=EDGE_LOOP('',(#176,#177,#178,#179));
#783=EDGE_LOOP('',(#180,#181,#182,#183));
#784=EDGE_LOOP('',(#184,#185,#186,#187));
#785=EDGE_LOOP('',(#188,#189,#190,#191));
#786=EDGE_LOOP('',(#192,#193,#194,#195));
#787=EDGE_LOOP('',(#196,#197,#198,#199));
#788=EDGE_LOOP('',(#200,#201,#202,#203));
#789=EDGE_LOOP('',(#204,#205,#206,#207));
#790=EDGE_LOOP('',(#208,#209,#210,#211));
#791=EDGE_LOOP('',(#212,#213,#214,#215));
#792=EDGE_LOOP('',(#216,#217,#218,#219));
#793=EDGE_LOOP('',(#220,#221,#222,#223));
#794=EDGE_LOOP('',(#224,#225,#226,#227));
#795=EDGE_LOOP('',(#228,#229,#230,#231));
#796=EDGE_LOOP('',(#232,#233,#234,#235));
#797=EDGE_LOOP('',(#236,#237,#238,#239));
#798=EDGE_LOOP('',(#240,#241,#242,#243));
#799=EDGE_LOOP('',(#244,#245,#246,#247));
#800=EDGE_LOOP('',(#248,#249,#250,#251));
#801=EDGE_LOOP('',(#252,#253,#254,#255));
#802=EDGE_LOOP('',(#256,#257,#258,#259));
#803=EDGE_LOOP('',(#260,#261,#262,#263));
#804=EDGE_LOOP('',(#264,#265,#266,#267));
#805=EDGE_LOOP('',(#268,#269,#270,#271));
#806=EDGE_LOOP('',(#272,#273,#274,#275));
#807=EDGE_LOOP('',(#276,#277,#278,#279));
#808=EDGE_LOOP('',(#280));
#809=EDGE_LOOP('',(#281,#282,#283,#284,#285,#286,#287,#288,#289,#290,#291,
#292,#293,#294,#295,#296,#297,#298,#299,#300,#301,#302,#303,#304,#305,#306,
#307,#308,#309,#310,#311,#312,#313,#314,#315,#316,#317,#318,#319,#320));
#810=EDGE_LOOP('',(#321));
#811=EDGE_LOOP('',(#322,#323,#324,#325,#326,#327,#328,#329,#330,#331,#332,
#333,#334,#335,#336,#337,#338,#339,#340,#341,#342,#343,#344,#345,#346,#347,
#348,#349,#350,#351,#352,#353,#354,#355,#356,#357,#358,#359,#360,#361));
#812=EDGE_LOOP('',(#362));
#813=EDGE_LOOP('',(#363));
#814=EDGE_LOOP('',(#364));
#815=EDGE_LOOP('',(#365));
#816=EDGE_LOOP('',(#366));
#817=EDGE_LOOP('',(#367));
#818=EDGE_LOOP('',(#368));
#819=EDGE_LOOP('',(#369));
#820=EDGE_LOOP('',(#370));
#821=EDGE_LOOP('',(#371));
#822=EDGE_LOOP('',(#372));
#823=EDGE_LOOP('',(#373));
#824=EDGE_LOOP('',(#374));
#825=EDGE_LOOP('',(#375));
#826=EDGE_LOOP('',(#376));
#827=EDGE_LOOP('',(#377));
#828=EDGE_LOOP('',(#378));
#829=EDGE_LOOP('',(#379));
#830=EDGE_LOOP('',(#380));
#831=EDGE_LOOP('',(#381));
#832=EDGE_LOOP('',(#382));
#833=EDGE_LOOP('',(#383));
#834=EDGE_LOOP('',(#384));
#835=EDGE_LOOP('',(#385));
#836=EDGE_LOOP('',(#386));
#837=EDGE_LOOP('',(#387));
#838=EDGE_LOOP('',(#388));
#839=EDGE_LOOP('',(#389));
#840=EDGE_LOOP('',(#390));
#841=EDGE_LOOP('',(#391));
#842=EDGE_LOOP('',(#392));
#843=EDGE_LOOP('',(#393));
#844=FACE_BOUND('',#768,.T.);
#845=FACE_BOUND('',#769,.T.);
#846=FACE_BOUND('',#770,.T.);
#847=FACE_BOUND('',#771,.T.);
#848=FACE_BOUND('',#772,.T.);
#849=FACE_BOUND('',#773,.T.);
#850=FACE_BOUND('',#774,.T.);
#851=FACE_BOUND('',#775,.T.);
#852=FACE_BOUND('',#776,.T.);
#853=FACE_BOUND('',#777,.T.);
#854=FACE_BOUND('',#778,.T.);
#855=FACE_BOUND('',#779,.T.);
#856=FACE_BOUND('',#780,.T.);
#857=FACE_BOUND('',#781,.T.);
#858=FACE_BOUND('',#782,.T.);
#859=FACE_BOUND('',#783,.T.);
#860=FACE_BOUND('',#784,.T.);
#861=FACE_BOUND('',#785,.T.);
#862=FACE_BOUND('',#786,.T.);
#863=FACE_BOUND('',#787,.T.);
#864=FACE_BOUND('',#788,.T.);
#865=FACE_BOUND('',#789,.T.);
#866=FACE_BOUND('',#790,.T.);
#867=FACE_BOUND('',#791,.T.);
#868=FACE_BOUND('',#792,.T.);
#869=FACE_BOUND('',#793,.T.);
#870=FACE_BOUND('',#794,.T.);
#871=FACE_BOUND('',#795,.T.);
#872=FACE_BOUND('',#796,.T.);
#873=FACE_BOUND('',#797,.T.);
#874=FACE_BOUND('',#798,.T.);
#875=FACE_BOUND('',#799,.T.);
#876=FACE_BOUND('',#800,.T.);
#877=FACE_BOUND('',#801,.T.);
#878=FACE_BOUND('',#802,.T.);
#879=FACE_BOUND('',#803,.T.);
#880=FACE_BOUND('',#804,.T.);
#881=FACE_BOUND('',#805,.T.);
#882=FACE_BOUND('',#806,.T.);
#883=FACE_BOUND('',#807,.T.);
#884=FACE_BOUND('',#808,.T.);
#885=FACE_BOUND('',#809,.T.);
#886=FACE_BOUND('',#810,.T.);
#887=FACE_BOUND('',#811,.T.);
#888=FACE_BOUND('',#812,.T.);
#889=FACE_BOUND('',#813,.T.);
#890=FACE_BOUND('',#814,.T.);
#891=FACE_BOUND('',#815,.T.);
#892=FACE_BOUND('',#816,.T.);
#893=FACE_BOUND('',#817,.T.);
#894=FACE_BOUND('',#818,.T.);
#895=FACE_BOUND('',#819,.T.);
#896=FACE_BOUND('',#820,.T.);
#897=FACE_BOUND('',#821,.T.);
#898=FACE_BOUND('',#822,.T.);
#899=FACE_BOUND('',#823,.T.);
#900=FACE_BOUND('',#824,.T.);
#901=FACE_BOUND('',#825,.T.);
#902=FACE_BOUND('',#826,.T.);
#903=FACE_BOUND('',#827,.T.);
#904=FACE_BOUND('',#828,.T.);
#905=FACE_BOUND('',#829,.T.);
#906=FACE_BOUND('',#830,.T.);
#907=FACE_BOUND('',#831,.T.);
#908=FACE_BOUND('',#832,.T.);
#909=FACE_BOUND('',#833,.T.);
#910=FACE_BOUND('',#834,.T.);
#911=FACE_BOUND('',#835,.T.);
#912=FACE_BOUND('',#836,.T.);
#913=FACE_BOUND('',#837,.T.);
#914=FACE_BOUND('',#838,.T.);
#915=FACE_BOUND('',#839,.T.);
#916=FACE_BOUND('',#840,.T.);
#917=FACE_BOUND('',#841,.T.);
#918=FACE_BOUND('',#842,.T.);
#919=FACE_BOUND('',#843,.T.);
#920=PLANE('',#1008);
#921=PLANE('',#1012);
#922=PLANE('',#1016);
#923=PLANE('',#1026);
#924=PLANE('',#1030);
#925=PLANE('',#1034);
#926=PLANE('',#1044);
#927=PLANE('',#1048);
#928=PLANE('',#1052);
#929=PLANE('',#1062);
#930=PLANE('',#1066);
#931=PLANE('',#1070);
#932=PLANE('',#1080);
#933=PLANE('',#1084);
#934=PLANE('',#1088);
#935=PLANE('',#1098);
#936=PLANE('',#1100);
#937=ADVANCED_FACE('',(#844),#920,.F.);
#938=ADVANCED_FACE('',(#845),#89,.T.);
#939=ADVANCED_FACE('',(#846),#921,.T.);
#940=ADVANCED_FACE('',(#847),#90,.T.);
#941=ADVANCED_FACE('',(#848),#922,.T.);
#942=ADVANCED_FACE('',(#849),#91,.F.);
#943=ADVANCED_FACE('',(#850),#92,.F.);
#944=ADVANCED_FACE('',(#851),#93,.F.);
#945=ADVANCED_FACE('',(#852),#923,.F.);
#946=ADVANCED_FACE('',(#853),#94,.T.);
#947=ADVANCED_FACE('',(#854),#924,.T.);
#948=ADVANCED_FACE('',(#855),#95,.T.);
#949=ADVANCED_FACE('',(#856),#925,.T.);
#950=ADVANCED_FACE('',(#857),#96,.F.);
#951=ADVANCED_FACE('',(#858),#97,.F.);
#952=ADVANCED_FACE('',(#859),#98,.F.);
#953=ADVANCED_FACE('',(#860),#926,.F.);
#954=ADVANCED_FACE('',(#861),#99,.T.);
#955=ADVANCED_FACE('',(#862),#927,.T.);
#956=ADVANCED_FACE('',(#863),#100,.T.);
#957=ADVANCED_FACE('',(#864),#928,.T.);
#958=ADVANCED_FACE('',(#865),#101,.F.);
#959=ADVANCED_FACE('',(#866),#102,.F.);
#960=ADVANCED_FACE('',(#867),#103,.F.);
#961=ADVANCED_FACE('',(#868),#929,.F.);
#962=ADVANCED_FACE('',(#869),#104,.T.);
#963=ADVANCED_FACE('',(#870),#930,.T.);
#964=ADVANCED_FACE('',(#871),#105,.T.);
#965=ADVANCED_FACE('',(#872),#931,.T.);
#966=ADVANCED_FACE('',(#873),#106,.F.);
#967=ADVANCED_FACE('',(#874),#107,.F.);
#968=ADVANCED_FACE('',(#875),#108,.F.);
#969=ADVANCED_FACE('',(#876),#932,.F.);
#970=ADVANCED_FACE('',(#877),#109,.T.);
#971=ADVANCED_FACE('',(#878),#933,.T.);
#972=ADVANCED_FACE('',(#879),#110,.T.);
#973=ADVANCED_FACE('',(#880),#934,.T.);
#974=ADVANCED_FACE('',(#881),#111,.F.);
#975=ADVANCED_FACE('',(#882),#112,.F.);
#976=ADVANCED_FACE('',(#883),#113,.F.);
#977=ADVANCED_FACE('',(#884,#885),#935,.F.);
#978=ADVANCED_FACE('',(#886,#887),#936,.T.);
#979=ADVANCED_FACE('',(#888,#889),#12,.T.);
#980=ADVANCED_FACE('',(#890,#891),#13,.T.);
#981=ADVANCED_FACE('',(#892,#893),#114,.T.);
#982=ADVANCED_FACE('',(#894,#895),#115,.T.);
#983=ADVANCED_FACE('',(#896,#897),#116,.T.);
#984=ADVANCED_FACE('',(#898,#899),#14,.T.);
#985=ADVANCED_FACE('',(#900,#901),#15,.T.);
#986=ADVANCED_FACE('',(#902,#903),#117,.T.);
#987=ADVANCED_FACE('',(#904,#905),#16,.T.);
#988=ADVANCED_FACE('',(#906,#907),#17,.T.);
#989=ADVANCED_FACE('',(#908,#909),#118,.T.);
#990=ADVANCED_FACE('',(#910,#911),#18,.T.);
#991=ADVANCED_FACE('',(#912,#913),#19,.T.);
#992=ADVANCED_FACE('',(#914,#915),#119,.T.);
#993=ADVANCED_FACE('',(#916,#917),#20,.T.);
#994=ADVANCED_FACE('',(#918,#919),#21,.T.);
#995=CLOSED_SHELL('',(#937,#938,#939,#940,#941,#942,#943,#944,#945,#946,
#947,#948,#949,#950,#951,#952,#953,#954,#955,#956,#957,#958,#959,#960,#961,
#962,#963,#964,#965,#966,#967,#968,#969,#970,#971,#972,#973,#974,#975,#976,
#977,#978,#979,#980,#981,#982,#983,#984,#985,#986,#987,#988,#989,#990,#991,
#992,#993,#994));
#996=STYLED_ITEM('',(#997),#1004);
#997=PRESENTATION_STYLE_ASSIGNMENT((#998));
#998=SURFACE_STYLE_USAGE(.BOTH.,#999);
#999=SURFACE_SIDE_STYLE('',(#1000));
#1000=SURFACE_STYLE_FILL_AREA(#1001);
#1001=FILL_AREA_STYLE('',(#1002));
#1002=FILL_AREA_STYLE_COLOUR('',#1003);
#1003=COLOUR_RGB('',0.301960784313725,0.301960784313725,0.301960784313725);
#1004=MANIFOLD_SOLID_BREP('Wheel Tire',#995);
#1005=SHAPE_DEFINITION_REPRESENTATION(#1754,#1006);
#1006=SHAPE_REPRESENTATION('Wheel Tire',(#1007),#1749);
#1007=AXIS2_PLACEMENT_3D('',#1455,#1133,#1134);
#1008=AXIS2_PLACEMENT_3D('',#1456,#1135,#1136);
#1009=AXIS2_PLACEMENT_3D('',#1465,#1141,#1142);
#1010=AXIS2_PLACEMENT_3D('',#1466,#1143,#1144);
#1011=AXIS2_PLACEMENT_3D('',#1468,#1145,#1146);
#1012=AXIS2_PLACEMENT_3D('',#1471,#1148,#1149);
#1013=AXIS2_PLACEMENT_3D('',#1477,#1153,#1154);
#1014=AXIS2_PLACEMENT_3D('',#1478,#1155,#1156);
#1015=AXIS2_PLACEMENT_3D('',#1480,#1157,#1158);
#1016=AXIS2_PLACEMENT_3D('',#1483,#1160,#1161);
#1017=AXIS2_PLACEMENT_3D('',#1489,#1165,#1166);
#1018=AXIS2_PLACEMENT_3D('',#1490,#1167,#1168);
#1019=AXIS2_PLACEMENT_3D('',#1492,#1169,#1170);
#1020=AXIS2_PLACEMENT_3D('',#1495,#1172,#1173);
#1021=AXIS2_PLACEMENT_3D('',#1496,#1174,#1175);
#1022=AXIS2_PLACEMENT_3D('',#1498,#1176,#1177);
#1023=AXIS2_PLACEMENT_3D('',#1501,#1179,#1180);
#1024=AXIS2_PLACEMENT_3D('',#1502,#1181,#1182);
#1025=AXIS2_PLACEMENT_3D('',#1504,#1183,#1184);
#1026=AXIS2_PLACEMENT_3D('',#1507,#1186,#1187);
#1027=AXIS2_PLACEMENT_3D('',#1513,#1191,#1192);
#1028=AXIS2_PLACEMENT_3D('',#1514,#1193,#1194);
#1029=AXIS2_PLACEMENT_3D('',#1516,#1195,#1196);
#1030=AXIS2_PLACEMENT_3D('',#1519,#1198,#1199);
#1031=AXIS2_PLACEMENT_3D('',#1525,#1203,#1204);
#1032=AXIS2_PLACEMENT_3D('',#1526,#1205,#1206);
#1033=AXIS2_PLACEMENT_3D('',#1528,#1207,#1208);
#1034=AXIS2_PLACEMENT_3D('',#1531,#1210,#1211);
#1035=AXIS2_PLACEMENT_3D('',#1537,#1215,#1216);
#1036=AXIS2_PLACEMENT_3D('',#1538,#1217,#1218);
#1037=AXIS2_PLACEMENT_3D('',#1540,#1219,#1220);
#1038=AXIS2_PLACEMENT_3D('',#1543,#1222,#1223);
#1039=AXIS2_PLACEMENT_3D('',#1544,#1224,#1225);
#1040=AXIS2_PLACEMENT_3D('',#1546,#1226,#1227);
#1041=AXIS2_PLACEMENT_3D('',#1549,#1229,#1230);
#1042=AXIS2_PLACEMENT_3D('',#1550,#1231,#1232);
#1043=AXIS2_PLACEMENT_3D('',#1552,#1233,#1234);
#1044=AXIS2_PLACEMENT_3D('',#1555,#1236,#1237);
#1045=AXIS2_PLACEMENT_3D('',#1561,#1241,#1242);
#1046=AXIS2_PLACEMENT_3D('',#1562,#1243,#1244);
#1047=AXIS2_PLACEMENT_3D('',#1564,#1245,#1246);
#1048=AXIS2_PLACEMENT_3D('',#1567,#1248,#1249);
#1049=AXIS2_PLACEMENT_3D('',#1573,#1253,#1254);
#1050=AXIS2_PLACEMENT_3D('',#1574,#1255,#1256);
#1051=AXIS2_PLACEMENT_3D('',#1576,#1257,#1258);
#1052=AXIS2_PLACEMENT_3D('',#1579,#1260,#1261);
#1053=AXIS2_PLACEMENT_3D('',#1585,#1265,#1266);
#1054=AXIS2_PLACEMENT_3D('',#1586,#1267,#1268);
#1055=AXIS2_PLACEMENT_3D('',#1588,#1269,#1270);
#1056=AXIS2_PLACEMENT_3D('',#1591,#1272,#1273);
#1057=AXIS2_PLACEMENT_3D('',#1592,#1274,#1275);
#1058=AXIS2_PLACEMENT_3D('',#1594,#1276,#1277);
#1059=AXIS2_PLACEMENT_3D('',#1597,#1279,#1280);
#1060=AXIS2_PLACEMENT_3D('',#1598,#1281,#1282);
#1061=AXIS2_PLACEMENT_3D('',#1600,#1283,#1284);
#1062=AXIS2_PLACEMENT_3D('',#1603,#1286,#1287);
#1063=AXIS2_PLACEMENT_3D('',#1609,#1291,#1292);
#1064=AXIS2_PLACEMENT_3D('',#1610,#1293,#1294);
#1065=AXIS2_PLACEMENT_3D('',#1612,#1295,#1296);
#1066=AXIS2_PLACEMENT_3D('',#1615,#1298,#1299);
#1067=AXIS2_PLACEMENT_3D('',#1621,#1303,#1304);
#1068=AXIS2_PLACEMENT_3D('',#1622,#1305,#1306);
#1069=AXIS2_PLACEMENT_3D('',#1624,#1307,#1308);
#1070=AXIS2_PLACEMENT_3D('',#1627,#1310,#1311);
#1071=AXIS2_PLACEMENT_3D('',#1633,#1315,#1316);
#1072=AXIS2_PLACEMENT_3D('',#1634,#1317,#1318);
#1073=AXIS2_PLACEMENT_3D('',#1636,#1319,#1320);
#1074=AXIS2_PLACEMENT_3D('',#1639,#1322,#1323);
#1075=AXIS2_PLACEMENT_3D('',#1640,#1324,#1325);
#1076=AXIS2_PLACEMENT_3D('',#1642,#1326,#1327);
#1077=AXIS2_PLACEMENT_3D('',#1645,#1329,#1330);
#1078=AXIS2_PLACEMENT_3D('',#1646,#1331,#1332);
#1079=AXIS2_PLACEMENT_3D('',#1648,#1333,#1334);
#1080=AXIS2_PLACEMENT_3D('',#1651,#1336,#1337);
#1081=AXIS2_PLACEMENT_3D('',#1657,#1341,#1342);
#1082=AXIS2_PLACEMENT_3D('',#1658,#1343,#1344);
#1083=AXIS2_PLACEMENT_3D('',#1660,#1345,#1346);
#1084=AXIS2_PLACEMENT_3D('',#1663,#1348,#1349);
#1085=AXIS2_PLACEMENT_3D('',#1669,#1353,#1354);
#1086=AXIS2_PLACEMENT_3D('',#1670,#1355,#1356);
#1087=AXIS2_PLACEMENT_3D('',#1672,#1357,#1358);
#1088=AXIS2_PLACEMENT_3D('',#1675,#1360,#1361);
#1089=AXIS2_PLACEMENT_3D('',#1681,#1365,#1366);
#1090=AXIS2_PLACEMENT_3D('',#1682,#1367,#1368);
#1091=AXIS2_PLACEMENT_3D('',#1684,#1369,#1370);
#1092=AXIS2_PLACEMENT_3D('',#1687,#1372,#1373);
#1093=AXIS2_PLACEMENT_3D('',#1688,#1374,#1375);
#1094=AXIS2_PLACEMENT_3D('',#1690,#1376,#1377);
#1095=AXIS2_PLACEMENT_3D('',#1693,#1379,#1380);
#1096=AXIS2_PLACEMENT_3D('',#1694,#1381,#1382);
#1097=AXIS2_PLACEMENT_3D('',#1695,#1383,#1384);
#1098=AXIS2_PLACEMENT_3D('',#1696,#1385,#1386);
#1099=AXIS2_PLACEMENT_3D('',#1697,#1387,#1388);
#1100=AXIS2_PLACEMENT_3D('',#1699,#1389,#1390);
#1101=AXIS2_PLACEMENT_3D('',#1700,#1391,#1392);
#1102=AXIS2_PLACEMENT_3D('',#1702,#1393,#1394);
#1103=AXIS2_PLACEMENT_3D('',#1703,#1395,#1396);
#1104=AXIS2_PLACEMENT_3D('',#1705,#1397,#1398);
#1105=AXIS2_PLACEMENT_3D('',#1707,#1399,#1400);
#1106=AXIS2_PLACEMENT_3D('',#1708,#1401,#1402);
#1107=AXIS2_PLACEMENT_3D('',#1710,#1403,#1404);
#1108=AXIS2_PLACEMENT_3D('',#1711,#1405,#1406);
#1109=AXIS2_PLACEMENT_3D('',#1712,#1407,#1408);
#1110=AXIS2_PLACEMENT_3D('',#1714,#1409,#1410);
#1111=AXIS2_PLACEMENT_3D('',#1715,#1411,#1412);
#1112=AXIS2_PLACEMENT_3D('',#1717,#1413,#1414);
#1113=AXIS2_PLACEMENT_3D('',#1718,#1415,#1416);
#1114=AXIS2_PLACEMENT_3D('',#1720,#1417,#1418);
#1115=AXIS2_PLACEMENT_3D('',#1722,#1419,#1420);
#1116=AXIS2_PLACEMENT_3D('',#1723,#1421,#1422);
#1117=AXIS2_PLACEMENT_3D('',#1724,#1423,#1424);
#1118=AXIS2_PLACEMENT_3D('',#1726,#1425,#1426);
#1119=AXIS2_PLACEMENT_3D('',#1727,#1427,#1428);
#1120=AXIS2_PLACEMENT_3D('',#1729,#1429,#1430);
#1121=AXIS2_PLACEMENT_3D('',#1731,#1431,#1432);
#1122=AXIS2_PLACEMENT_3D('',#1732,#1433,#1434);
#1123=AXIS2_PLACEMENT_3D('',#1733,#1435,#1436);
#1124=AXIS2_PLACEMENT_3D('',#1735,#1437,#1438);
#1125=AXIS2_PLACEMENT_3D('',#1736,#1439,#1440);
#1126=AXIS2_PLACEMENT_3D('',#1738,#1441,#1442);
#1127=AXIS2_PLACEMENT_3D('',#1740,#1443,#1444);
#1128=AXIS2_PLACEMENT_3D('',#1741,#1445,#1446);
#1129=AXIS2_PLACEMENT_3D('',#1742,#1447,#1448);
#1130=AXIS2_PLACEMENT_3D('',#1744,#1449,#1450);
#1131=AXIS2_PLACEMENT_3D('',#1745,#1451,#1452);
#1132=AXIS2_PLACEMENT_3D('',#1747,#1453,#1454);
#1133=DIRECTION('',(0.,0.,1.));
#1134=DIRECTION('',(1.,0.,0.));
#1135=DIRECTION('',(-0.996253409644179,0.,-0.0864820430629882));
#1136=DIRECTION('',(-0.0864820430629882,0.,0.996253409644179));
#1137=DIRECTION('',(0.0864820430629882,0.,-0.996253409644179));
#1138=DIRECTION('',(0.,-1.,0.));
#1139=DIRECTION('',(0.0864820430629882,0.,-0.996253409644179));
#1140=DIRECTION('',(0.,-1.,0.));
#1141=DIRECTION('',(0.,-1.,0.));
#1142=DIRECTION('',(0.,0.,-1.));
#1143=DIRECTION('',(0.,-1.,0.));
#1144=DIRECTION('',(0.,0.,-1.));
#1145=DIRECTION('',(0.,-1.,0.));
#1146=DIRECTION('',(0.,0.,-1.));
#1147=DIRECTION('',(0.,-1.,0.));
#1148=DIRECTION('',(0.809016994374947,0.,0.587785252292473));
#1149=DIRECTION('',(0.587785252292473,0.,-0.809016994374947));
#1150=DIRECTION('',(-0.587785252292473,0.,0.809016994374948));
#1151=DIRECTION('',(-0.587785252292473,0.,0.809016994374948));
#1152=DIRECTION('',(0.,-1.,0.));
#1153=DIRECTION('',(0.,-1.,0.));
#1154=DIRECTION('',(0.,0.,-1.));
#1155=DIRECTION('',(0.,-1.,0.));
#1156=DIRECTION('',(0.,0.,-1.));
#1157=DIRECTION('',(0.,-1.,0.));
#1158=DIRECTION('',(0.,0.,-1.));
#1159=DIRECTION('',(0.,-1.,0.));
#1160=DIRECTION('',(0.390108544881611,0.,0.920768876108632));
#1161=DIRECTION('',(0.920768876108632,0.,-0.390108544881611));
#1162=DIRECTION('',(-0.920768876108632,0.,0.390108544881611));
#1163=DIRECTION('',(-0.920768876108632,0.,0.390108544881611));
#1164=DIRECTION('',(0.,-1.,0.));
#1165=DIRECTION('',(0.,-1.,0.));
#1166=DIRECTION('',(0.,0.,-1.));
#1167=DIRECTION('',(0.,-1.,0.));
#1168=DIRECTION('',(0.,0.,-1.));
#1169=DIRECTION('',(0.,-1.,0.));
#1170=DIRECTION('',(0.,0.,-1.));
#1171=DIRECTION('',(0.,-1.,0.));
#1172=DIRECTION('',(0.,-1.,0.));
#1173=DIRECTION('',(0.,0.,-1.));
#1174=DIRECTION('',(0.,-1.,0.));
#1175=DIRECTION('',(0.,0.,-1.));
#1176=DIRECTION('',(0.,-1.,0.));
#1177=DIRECTION('',(0.,0.,-1.));
#1178=DIRECTION('',(0.,-1.,0.));
#1179=DIRECTION('',(0.,-1.,0.));
#1180=DIRECTION('',(0.,0.,-1.));
#1181=DIRECTION('',(0.,-1.,0.));
#1182=DIRECTION('',(0.,0.,-1.));
#1183=DIRECTION('',(0.,-1.,0.));
#1184=DIRECTION('',(0.,0.,-1.));
#1185=DIRECTION('',(0.,-1.,0.));
#1186=DIRECTION('',(-0.390108544881611,0.,0.920768876108632));
#1187=DIRECTION('',(0.920768876108632,0.,0.390108544881611));
#1188=DIRECTION('',(-0.920768876108632,0.,-0.390108544881611));
#1189=DIRECTION('',(-0.920768876108632,0.,-0.390108544881611));
#1190=DIRECTION('',(0.,-1.,0.));
#1191=DIRECTION('',(0.,-1.,0.));
#1192=DIRECTION('',(0.,0.,-1.));
#1193=DIRECTION('',(0.,-1.,0.));
#1194=DIRECTION('',(0.,0.,-1.));
#1195=DIRECTION('',(0.,-1.,0.));
#1196=DIRECTION('',(0.,0.,-1.));
#1197=DIRECTION('',(0.,-1.,0.));
#1198=DIRECTION('',(0.809016994374948,0.,-0.587785252292473));
#1199=DIRECTION('',(-0.587785252292473,0.,-0.809016994374948));
#1200=DIRECTION('',(0.587785252292473,0.,0.809016994374948));
#1201=DIRECTION('',(0.587785252292473,0.,0.809016994374948));
#1202=DIRECTION('',(0.,-1.,0.));
#1203=DIRECTION('',(0.,-1.,0.));
#1204=DIRECTION('',(0.,0.,-1.));
#1205=DIRECTION('',(0.,-1.,0.));
#1206=DIRECTION('',(0.,0.,-1.));
#1207=DIRECTION('',(0.,-1.,0.));
#1208=DIRECTION('',(0.,0.,-1.));
#1209=DIRECTION('',(0.,-1.,0.));
#1210=DIRECTION('',(0.996253409644179,0.,-0.0864820430629883));
#1211=DIRECTION('',(-0.0864820430629883,0.,-0.996253409644179));
#1212=DIRECTION('',(0.0864820430629883,0.,0.996253409644179));
#1213=DIRECTION('',(0.0864820430629883,0.,0.996253409644179));
#1214=DIRECTION('',(0.,-1.,0.));
#1215=DIRECTION('',(0.,-1.,0.));
#1216=DIRECTION('',(0.,0.,-1.));
#1217=DIRECTION('',(0.,-1.,0.));
#1218=DIRECTION('',(0.,0.,-1.));
#1219=DIRECTION('',(0.,-1.,0.));
#1220=DIRECTION('',(0.,0.,-1.));
#1221=DIRECTION('',(0.,-1.,0.));
#1222=DIRECTION('',(0.,-1.,0.));
#1223=DIRECTION('',(0.,0.,-1.));
#1224=DIRECTION('',(0.,-1.,0.));
#1225=DIRECTION('',(0.,0.,-1.));
#1226=DIRECTION('',(0.,-1.,0.));
#1227=DIRECTION('',(0.,0.,-1.));
#1228=DIRECTION('',(0.,-1.,0.));
#1229=DIRECTION('',(0.,-1.,0.));
#1230=DIRECTION('',(0.,0.,-1.));
#1231=DIRECTION('',(0.,-1.,0.));
#1232=DIRECTION('',(0.,0.,-1.));
#1233=DIRECTION('',(0.,-1.,0.));
#1234=DIRECTION('',(0.,0.,-1.));
#1235=DIRECTION('',(0.,-1.,0.));
#1236=DIRECTION('',(0.75515306960558,0.,0.655548504281164));
#1237=DIRECTION('',(0.655548504281164,0.,-0.75515306960558));
#1238=DIRECTION('',(-0.655548504281164,0.,0.75515306960558));
#1239=DIRECTION('',(-0.655548504281164,0.,0.75515306960558));
#1240=DIRECTION('',(0.,-1.,0.));
#1241=DIRECTION('',(0.,-1.,0.));
#1242=DIRECTION('',(0.,0.,-1.));
#1243=DIRECTION('',(0.,-1.,0.));
#1244=DIRECTION('',(0.,0.,-1.));
#1245=DIRECTION('',(0.,-1.,0.));
#1246=DIRECTION('',(0.,0.,-1.));
#1247=DIRECTION('',(0.,-1.,0.));
#1248=DIRECTION('',(-0.309016994374948,0.,-0.951056516295154));
#1249=DIRECTION('',(-0.951056516295154,0.,0.309016994374948));
#1250=DIRECTION('',(0.951056516295154,0.,-0.309016994374948));
#1251=DIRECTION('',(0.951056516295154,0.,-0.309016994374948));
#1252=DIRECTION('',(0.,-1.,0.));
#1253=DIRECTION('',(0.,-1.,0.));
#1254=DIRECTION('',(0.,0.,-1.));
#1255=DIRECTION('',(0.,-1.,0.));
#1256=DIRECTION('',(0.,0.,-1.));
#1257=DIRECTION('',(0.,-1.,0.));
#1258=DIRECTION('',(0.,0.,-1.));
#1259=DIRECTION('',(0.,-1.,0.));
#1260=DIRECTION('',(0.225609923686464,0.,-0.97421771813809));
#1261=DIRECTION('',(-0.974217718138091,0.,-0.225609923686464));
#1262=DIRECTION('',(0.974217718138091,0.,0.225609923686464));
#1263=DIRECTION('',(0.974217718138091,0.,0.225609923686464));
#1264=DIRECTION('',(0.,-1.,0.));
#1265=DIRECTION('',(0.,-1.,0.));
#1266=DIRECTION('',(0.,0.,-1.));
#1267=DIRECTION('',(0.,-1.,0.));
#1268=DIRECTION('',(0.,0.,-1.));
#1269=DIRECTION('',(0.,-1.,0.));
#1270=DIRECTION('',(0.,0.,-1.));
#1271=DIRECTION('',(0.,-1.,0.));
#1272=DIRECTION('',(0.,-1.,0.));
#1273=DIRECTION('',(0.,0.,-1.));
#1274=DIRECTION('',(0.,-1.,0.));
#1275=DIRECTION('',(0.,0.,-1.));
#1276=DIRECTION('',(0.,-1.,0.));
#1277=DIRECTION('',(0.,0.,-1.));
#1278=DIRECTION('',(0.,-1.,0.));
#1279=DIRECTION('',(0.,-1.,0.));
#1280=DIRECTION('',(0.,0.,-1.));
#1281=DIRECTION('',(0.,-1.,0.));
#1282=DIRECTION('',(0.,0.,-1.));
#1283=DIRECTION('',(0.,-1.,0.));
#1284=DIRECTION('',(0.,0.,-1.));
#1285=DIRECTION('',(0.,-1.,0.));
#1286=DIRECTION('',(0.856818808606674,0.,-0.515617619188717));
#1287=DIRECTION('',(-0.515617619188717,0.,-0.856818808606674));
#1288=DIRECTION('',(0.515617619188717,0.,0.856818808606674));
#1289=DIRECTION('',(0.515617619188717,0.,0.856818808606674));
#1290=DIRECTION('',(0.,-1.,0.));
#1291=DIRECTION('',(0.,-1.,0.));
#1292=DIRECTION('',(0.,0.,-1.));
#1293=DIRECTION('',(0.,-1.,0.));
#1294=DIRECTION('',(0.,0.,-1.));
#1295=DIRECTION('',(0.,-1.,0.));
#1296=DIRECTION('',(0.,0.,-1.));
#1297=DIRECTION('',(0.,-1.,0.));
#1298=DIRECTION('',(-1.,0.,0.));
#1299=DIRECTION('',(0.,0.,1.));
#1300=DIRECTION('',(0.,0.,-1.));
#1301=DIRECTION('',(0.,0.,-1.));
#1302=DIRECTION('',(0.,-1.,0.));
#1303=DIRECTION('',(0.,-1.,0.));
#1304=DIRECTION('',(0.,0.,-1.));
#1305=DIRECTION('',(0.,-1.,0.));
#1306=DIRECTION('',(0.,0.,-1.));
#1307=DIRECTION('',(0.,-1.,0.));
#1308=DIRECTION('',(0.,0.,-1.));
#1309=DIRECTION('',(0.,-1.,0.));
#1310=DIRECTION('',(-0.856818808606674,0.,-0.515617619188717));
#1311=DIRECTION('',(-0.515617619188717,0.,0.856818808606674));
#1312=DIRECTION('',(0.515617619188717,0.,-0.856818808606674));
#1313=DIRECTION('',(0.515617619188717,0.,-0.856818808606674));
#1314=DIRECTION('',(0.,-1.,0.));
#1315=DIRECTION('',(0.,-1.,0.));
#1316=DIRECTION('',(0.,0.,-1.));
#1317=DIRECTION('',(0.,-1.,0.));
#1318=DIRECTION('',(0.,0.,-1.));
#1319=DIRECTION('',(0.,-1.,0.));
#1320=DIRECTION('',(0.,0.,-1.));
#1321=DIRECTION('',(0.,-1.,0.));
#1322=DIRECTION('',(0.,-1.,0.));
#1323=DIRECTION('',(0.,0.,-1.));
#1324=DIRECTION('',(0.,-1.,0.));
#1325=DIRECTION('',(0.,0.,-1.));
#1326=DIRECTION('',(0.,-1.,0.));
#1327=DIRECTION('',(0.,0.,-1.));
#1328=DIRECTION('',(0.,-1.,0.));
#1329=DIRECTION('',(0.,-1.,0.));
#1330=DIRECTION('',(0.,0.,-1.));
#1331=DIRECTION('',(0.,-1.,0.));
#1332=DIRECTION('',(0.,0.,-1.));
#1333=DIRECTION('',(0.,-1.,0.));
#1334=DIRECTION('',(0.,0.,-1.));
#1335=DIRECTION('',(0.,-1.,0.));
#1336=DIRECTION('',(-0.225609923686464,0.,-0.97421771813809));
#1337=DIRECTION('',(-0.97421771813809,0.,0.225609923686464));
#1338=DIRECTION('',(0.97421771813809,0.,-0.225609923686464));
#1339=DIRECTION('',(0.97421771813809,0.,-0.225609923686464));
#1340=DIRECTION('',(0.,-1.,0.));
#1341=DIRECTION('',(0.,-1.,0.));
#1342=DIRECTION('',(0.,0.,-1.));
#1343=DIRECTION('',(0.,-1.,0.));
#1344=DIRECTION('',(0.,0.,-1.));
#1345=DIRECTION('',(0.,-1.,0.));
#1346=DIRECTION('',(0.,0.,-1.));
#1347=DIRECTION('',(0.,-1.,0.));
#1348=DIRECTION('',(-0.309016994374948,0.,0.951056516295153));
#1349=DIRECTION('',(0.951056516295153,0.,0.309016994374948));
#1350=DIRECTION('',(-0.951056516295153,0.,-0.309016994374948));
#1351=DIRECTION('',(-0.951056516295153,0.,-0.309016994374948));
#1352=DIRECTION('',(0.,-1.,0.));
#1353=DIRECTION('',(0.,-1.,0.));
#1354=DIRECTION('',(0.,0.,-1.));
#1355=DIRECTION('',(0.,-1.,0.));
#1356=DIRECTION('',(0.,0.,-1.));
#1357=DIRECTION('',(0.,-1.,0.));
#1358=DIRECTION('',(0.,0.,-1.));
#1359=DIRECTION('',(0.,-1.,0.));
#1360=DIRECTION('',(-0.755153069605579,0.,0.655548504281164));
#1361=DIRECTION('',(0.655548504281164,0.,0.755153069605579));
#1362=DIRECTION('',(-0.655548504281164,0.,-0.755153069605579));
#1363=DIRECTION('',(-0.655548504281164,0.,-0.755153069605579));
#1364=DIRECTION('',(0.,-1.,0.));
#1365=DIRECTION('',(0.,-1.,0.));
#1366=DIRECTION('',(0.,0.,-1.));
#1367=DIRECTION('',(0.,-1.,0.));
#1368=DIRECTION('',(0.,0.,-1.));
#1369=DIRECTION('',(0.,-1.,0.));
#1370=DIRECTION('',(0.,0.,-1.));
#1371=DIRECTION('',(0.,-1.,0.));
#1372=DIRECTION('',(0.,-1.,0.));
#1373=DIRECTION('',(0.,0.,-1.));
#1374=DIRECTION('',(0.,-1.,0.));
#1375=DIRECTION('',(0.,0.,-1.));
#1376=DIRECTION('',(0.,-1.,0.));
#1377=DIRECTION('',(0.,0.,-1.));
#1378=DIRECTION('',(0.,-1.,0.));
#1379=DIRECTION('',(0.,-1.,0.));
#1380=DIRECTION('',(0.,0.,-1.));
#1381=DIRECTION('',(0.,-1.,0.));
#1382=DIRECTION('',(0.,0.,-1.));
#1383=DIRECTION('',(0.,-1.,0.));
#1384=DIRECTION('',(0.,0.,-1.));
#1385=DIRECTION('',(0.,-1.,0.));
#1386=DIRECTION('',(1.,0.,0.));
#1387=DIRECTION('',(0.,-1.,0.));
#1388=DIRECTION('',(0.,0.,-1.));
#1389=DIRECTION('',(0.,-1.,0.));
#1390=DIRECTION('',(1.,0.,0.));
#1391=DIRECTION('',(0.,-1.,0.));
#1392=DIRECTION('',(0.,0.,-1.));
#1393=DIRECTION('',(0.,-1.,0.));
#1394=DIRECTION('',(0.,0.,-1.));
#1395=DIRECTION('',(0.,-1.,0.));
#1396=DIRECTION('',(0.,0.,-1.));
#1397=DIRECTION('',(0.,-1.,0.));
#1398=DIRECTION('',(0.,0.,-1.));
#1399=DIRECTION('',(0.,1.,0.));
#1400=DIRECTION('',(0.,0.,1.));
#1401=DIRECTION('',(0.,-1.,0.));
#1402=DIRECTION('',(0.,0.,-1.));
#1403=DIRECTION('',(0.,-1.,0.));
#1404=DIRECTION('',(0.,0.,-1.));
#1405=DIRECTION('',(0.,1.,0.));
#1406=DIRECTION('',(0.,0.,1.));
#1407=DIRECTION('',(0.,-1.,0.));
#1408=DIRECTION('',(0.,0.,-1.));
#1409=DIRECTION('',(0.,1.,0.));
#1410=DIRECTION('',(0.,0.,1.));
#1411=DIRECTION('',(0.,1.,0.));
#1412=DIRECTION('',(0.,0.,1.));
#1413=DIRECTION('',(0.,1.,0.));
#1414=DIRECTION('',(0.,0.,1.));
#1415=DIRECTION('',(0.,-1.,0.));
#1416=DIRECTION('',(0.,0.,-1.));
#1417=DIRECTION('',(0.,1.,0.));
#1418=DIRECTION('',(0.,0.,1.));
#1419=DIRECTION('',(0.,-1.,0.));
#1420=DIRECTION('',(0.,0.,-1.));
#1421=DIRECTION('',(0.,1.,0.));
#1422=DIRECTION('',(0.,0.,1.));
#1423=DIRECTION('',(0.,-1.,0.));
#1424=DIRECTION('',(0.,0.,-1.));
#1425=DIRECTION('',(0.,1.,0.));
#1426=DIRECTION('',(0.,0.,1.));
#1427=DIRECTION('',(0.,-1.,0.));
#1428=DIRECTION('',(0.,0.,-1.));
#1429=DIRECTION('',(0.,1.,0.));
#1430=DIRECTION('',(0.,0.,1.));
#1431=DIRECTION('',(0.,-1.,0.));
#1432=DIRECTION('',(0.,0.,-1.));
#1433=DIRECTION('',(0.,1.,0.));
#1434=DIRECTION('',(0.,0.,1.));
#1435=DIRECTION('',(0.,-1.,0.));
#1436=DIRECTION('',(0.,0.,-1.));
#1437=DIRECTION('',(0.,1.,0.));
#1438=DIRECTION('',(0.,0.,1.));
#1439=DIRECTION('',(0.,-1.,0.));
#1440=DIRECTION('',(0.,0.,-1.));
#1441=DIRECTION('',(0.,1.,0.));
#1442=DIRECTION('',(0.,0.,1.));
#1443=DIRECTION('',(0.,-1.,0.));
#1444=DIRECTION('',(0.,0.,-1.));
#1445=DIRECTION('',(0.,1.,0.));
#1446=DIRECTION('',(0.,0.,1.));
#1447=DIRECTION('',(0.,-1.,0.));
#1448=DIRECTION('',(0.,0.,-1.));
#1449=DIRECTION('',(0.,1.,0.));
#1450=DIRECTION('',(0.,0.,1.));
#1451=DIRECTION('',(0.,-1.,0.));
#1452=DIRECTION('',(0.,0.,-1.));
#1453=DIRECTION('',(0.,-1.,0.));
#1454=DIRECTION('',(0.,0.,-1.));
#1455=CARTESIAN_POINT('',(0.,0.,0.));
#1456=CARTESIAN_POINT('',(-0.0139617447941433,0.01,-0.014473271099819));
#1457=CARTESIAN_POINT('',(-0.0139617447941433,-0.01,-0.014473271099819));
#1458=CARTESIAN_POINT('',(-0.0139644454595258,-0.01,-0.0144421600506306));
#1459=CARTESIAN_POINT('',(-0.0137450429161293,-0.01,-0.0169696273051243));
#1460=CARTESIAN_POINT('',(-0.0137450429161293,0.01,-0.0169696273051243));
#1461=CARTESIAN_POINT('',(-0.0137450429161293,0.01,-0.0169696273051243));
#1462=CARTESIAN_POINT('',(-0.0139617447941433,0.01,-0.014473271099819));
#1463=CARTESIAN_POINT('',(-0.0139644454595258,0.01,-0.0144421600506306));
#1464=CARTESIAN_POINT('',(-0.0139644454595258,0.01,-0.0144421600506306));
#1465=CARTESIAN_POINT('',(-0.0159569522788142,0.01,-0.0146151241367566));
#1466=CARTESIAN_POINT('',(-0.0159569522788142,-0.01,-0.0146151241367566));
#1467=CARTESIAN_POINT('',(-0.0143389182900643,-0.01,-0.0134395536321716));
#1468=CARTESIAN_POINT('',(-0.0159569522788142,0.01,-0.0146151241367566));
#1469=CARTESIAN_POINT('',(-0.0143389182900643,0.01,-0.0134395536321716));
#1470=CARTESIAN_POINT('',(-0.0143389182900643,0.01,-0.0134395536321716));
#1471=CARTESIAN_POINT('',(-0.0166575092687502,0.01,-0.0102482869281408));
#1472=CARTESIAN_POINT('',(-0.0166575092687502,-0.01,-0.0102482869281408));
#1473=CARTESIAN_POINT('',(-0.0172127444905587,-0.01,-0.00948407120723483));
#1474=CARTESIAN_POINT('',(-0.0166575092687502,0.01,-0.0102482869281408));
#1475=CARTESIAN_POINT('',(-0.0172127444905587,0.01,-0.00948407120723483));
#1476=CARTESIAN_POINT('',(-0.0172127444905587,0.01,-0.00948407120723483));
#1477=CARTESIAN_POINT('',(-0.0188307784793086,0.01,-0.0106596417118198));
#1478=CARTESIAN_POINT('',(-0.0188307784793086,-0.01,-0.0106596417118198));
#1479=CARTESIAN_POINT('',(-0.0180505613895454,-0.01,-0.00881810395960251));
#1480=CARTESIAN_POINT('',(-0.0188307784793086,0.01,-0.0106596417118198));
#1481=CARTESIAN_POINT('',(-0.0180505613895454,0.01,-0.00881810395960251));
#1482=CARTESIAN_POINT('',(-0.0180505613895454,0.01,-0.00881810395960251));
#1483=CARTESIAN_POINT('',(-0.0199208529563227,0.01,-0.00802570454151688));
#1484=CARTESIAN_POINT('',(-0.0199208529563227,-0.01,-0.00802570454151688));
#1485=CARTESIAN_POINT('',(-0.0203865264771356,-0.01,-0.00782840940664872));
#1486=CARTESIAN_POINT('',(-0.0199208529563227,0.01,-0.00802570454151688));
#1487=CARTESIAN_POINT('',(-0.0203865264771356,0.01,-0.00782840940664872));
#1488=CARTESIAN_POINT('',(-0.0203865264771356,0.01,-0.00782840940664872));
#1489=CARTESIAN_POINT('',(-0.0196063093873724,0.01,-0.00598687165443146));
#1490=CARTESIAN_POINT('',(-0.0196063093873724,-0.01,-0.00598687165443146));
#1491=CARTESIAN_POINT('',(-0.0215191200593112,-0.01,-0.00657095669388816));
#1492=CARTESIAN_POINT('',(-0.0196063093873724,0.01,-0.00598687165443146));
#1493=CARTESIAN_POINT('',(-0.0215191200593112,0.01,-0.00657095669388816));
#1494=CARTESIAN_POINT('',(-0.0215191200593112,0.01,-0.00657095669388816));
#1495=CARTESIAN_POINT('',(2.89698820488127E-16,0.01,-1.07552855510562E-16));
#1496=CARTESIAN_POINT('',(2.89698820488127E-16,-0.01,-1.07552855510562E-16));
#1497=CARTESIAN_POINT('',(-0.0215191200593111,-0.01,0.00657095669388822));
#1498=CARTESIAN_POINT('',(2.89698820488127E-16,0.01,-1.07552855510562E-16));
#1499=CARTESIAN_POINT('',(-0.0215191200593111,0.01,0.00657095669388822));
#1500=CARTESIAN_POINT('',(-0.0215191200593111,0.01,0.00657095669388822));
#1501=CARTESIAN_POINT('',(-0.0196063093873723,0.01,0.00598687165443149));
#1502=CARTESIAN_POINT('',(-0.0196063093873723,-0.01,0.00598687165443149));
#1503=CARTESIAN_POINT('',(-0.0203865264771355,-0.01,0.00782840940664874));
#1504=CARTESIAN_POINT('',(-0.0196063093873723,0.01,0.00598687165443149));
#1505=CARTESIAN_POINT('',(-0.0203865264771355,0.01,0.00782840940664874));
#1506=CARTESIAN_POINT('',(-0.0203865264771355,0.01,0.00782840940664874));
#1507=CARTESIAN_POINT('',(-0.0180793152041054,0.01,0.00880592163128009));
#1508=CARTESIAN_POINT('',(-0.0180793152041054,-0.01,0.00880592163128009));
#1509=CARTESIAN_POINT('',(-0.0180505613895453,-0.01,0.00881810395960251));
#1510=CARTESIAN_POINT('',(-0.0180793152041054,0.01,0.00880592163128009));
#1511=CARTESIAN_POINT('',(-0.0180505613895453,0.01,0.00881810395960251));
#1512=CARTESIAN_POINT('',(-0.0180505613895453,0.01,0.00881810395960251));
#1513=CARTESIAN_POINT('',(-0.0188307784793086,0.01,0.0106596417118198));
#1514=CARTESIAN_POINT('',(-0.0188307784793086,-0.01,0.0106596417118198));
#1515=CARTESIAN_POINT('',(-0.0172127444905587,-0.01,0.00948407120723483));
#1516=CARTESIAN_POINT('',(-0.0188307784793086,0.01,0.0106596417118198));
#1517=CARTESIAN_POINT('',(-0.0172127444905587,0.01,0.00948407120723483));
#1518=CARTESIAN_POINT('',(-0.0172127444905587,0.01,0.00948407120723483));
#1519=CARTESIAN_POINT('',(-0.0148941535118728,0.01,0.0126753379112656));
#1520=CARTESIAN_POINT('',(-0.0148941535118728,-0.01,0.0126753379112656));
#1521=CARTESIAN_POINT('',(-0.0143389182900643,-0.01,0.0134395536321716));
#1522=CARTESIAN_POINT('',(-0.0148941535118728,0.01,0.0126753379112656));
#1523=CARTESIAN_POINT('',(-0.0143389182900643,0.01,0.0134395536321716));
#1524=CARTESIAN_POINT('',(-0.0143389182900643,0.01,0.0134395536321716));
#1525=CARTESIAN_POINT('',(-0.0159569522788142,0.01,0.0146151241367566));
#1526=CARTESIAN_POINT('',(-0.0159569522788142,-0.01,0.0146151241367566));
#1527=CARTESIAN_POINT('',(-0.0139644454595258,-0.01,0.0144421600506306));
#1528=CARTESIAN_POINT('',(-0.0159569522788142,0.01,0.0146151241367566));
#1529=CARTESIAN_POINT('',(-0.0139644454595258,0.01,0.0144421600506306));
#1530=CARTESIAN_POINT('',(-0.0139644454595258,0.01,0.0144421600506306));
#1531=CARTESIAN_POINT('',(-0.0137887807080173,0.01,0.0164657779191073));
#1532=CARTESIAN_POINT('',(-0.0137887807080173,-0.01,0.0164657779191073));
#1533=CARTESIAN_POINT('',(-0.0137450429161293,-0.01,0.0169696273051243));
#1534=CARTESIAN_POINT('',(-0.0137887807080173,0.01,0.0164657779191073));
#1535=CARTESIAN_POINT('',(-0.0137450429161293,0.01,0.0169696273051243));
#1536=CARTESIAN_POINT('',(-0.0137450429161293,0.01,0.0169696273051243));
#1537=CARTESIAN_POINT('',(-0.0117525360968409,0.01,0.0167966632189983));
#1538=CARTESIAN_POINT('',(-0.0117525360968409,-0.01,0.0167966632189983));
#1539=CARTESIAN_POINT('',(-0.0128991249843376,-0.01,0.0184353620696323));
#1540=CARTESIAN_POINT('',(-0.0117525360968409,0.01,0.0167966632189983));
#1541=CARTESIAN_POINT('',(-0.0128991249843376,0.01,0.0184353620696323));
#1542=CARTESIAN_POINT('',(-0.0128991249843376,0.01,0.0184353620696323));
#1543=CARTESIAN_POINT('',(3.13984949151802E-16,0.01,-4.49293380277993E-16));
#1544=CARTESIAN_POINT('',(3.13984949151802E-16,-0.01,-4.49293380277993E-16));
#1545=CARTESIAN_POINT('',(-0.000400422620306433,-0.01,0.0224964366450589));
#1546=CARTESIAN_POINT('',(3.13984949151802E-16,0.01,-4.49293380277993E-16));
#1547=CARTESIAN_POINT('',(-0.000400422620306433,0.01,0.0224964366450589));
#1548=CARTESIAN_POINT('',(-0.000400422620306433,0.01,0.0224964366450589));
#1549=CARTESIAN_POINT('',(-0.00036482949850139,0.01,0.0204967533877204));
#1550=CARTESIAN_POINT('',(-0.00036482949850139,-0.01,0.0204967533877204));
#1551=CARTESIAN_POINT('',(0.00114547664070977,-0.01,0.0218078503962827));
#1552=CARTESIAN_POINT('',(-0.00036482949850139,0.01,0.0204967533877204));
#1553=CARTESIAN_POINT('',(0.00114547664070977,0.01,0.0218078503962827));
#1554=CARTESIAN_POINT('',(0.00114547664070977,0.01,0.0218078503962827));
#1555=CARTESIAN_POINT('',(0.00278811350468345,0.01,0.019915629970218));
#1556=CARTESIAN_POINT('',(0.00278811350468345,-0.01,0.019915629970218));
#1557=CARTESIAN_POINT('',(0.00280858500477028,-0.01,0.019892048013995));
#1558=CARTESIAN_POINT('',(0.00278811350468345,0.01,0.019915629970218));
#1559=CARTESIAN_POINT('',(0.00280858500477028,0.01,0.019892048013995));
#1560=CARTESIAN_POINT('',(0.00280858500477028,0.01,0.019892048013995));
#1561=CARTESIAN_POINT('',(0.00431889114398144,0.01,0.0212031450225573));
#1562=CARTESIAN_POINT('',(0.00431889114398144,-0.01,0.0212031450225573));
#1563=CARTESIAN_POINT('',(0.00370085715523154,-0.01,0.019301031989967));
#1564=CARTESIAN_POINT('',(0.00431889114398144,0.01,0.0212031450225573));
#1565=CARTESIAN_POINT('',(0.00370085715523154,0.01,0.019301031989967));
#1566=CARTESIAN_POINT('',(0.00370085715523154,0.01,0.019301031989967));
#1567=CARTESIAN_POINT('',(0.00745241616475421,0.01,0.0180820765761931));
#1568=CARTESIAN_POINT('',(0.00745241616475421,-0.01,0.0180820765761931));
#1569=CARTESIAN_POINT('',(0.00835080562539141,-0.01,0.017790172145544));
#1570=CARTESIAN_POINT('',(0.00745241616475421,0.01,0.0180820765761931));
#1571=CARTESIAN_POINT('',(0.00835080562539141,0.01,0.017790172145544));
#1572=CARTESIAN_POINT('',(0.00835080562539141,0.01,0.017790172145544));
#1573=CARTESIAN_POINT('',(0.00896883961414131,0.01,0.0196922851781343));
#1574=CARTESIAN_POINT('',(0.00896883961414131,-0.01,0.0196922851781343));
#1575=CARTESIAN_POINT('',(0.00942005946151424,-0.01,0.0177438497418581));
#1576=CARTESIAN_POINT('',(0.00896883961414131,0.01,0.0196922851781343));
#1577=CARTESIAN_POINT('',(0.00942005946151424,0.01,0.0177438497418581));
#1578=CARTESIAN_POINT('',(0.00942005946151424,0.01,0.0177438497418581));
#1579=CARTESIAN_POINT('',(0.0113989178153491,0.01,0.0182021149467327));
#1580=CARTESIAN_POINT('',(0.0113989178153491,-0.01,0.0182021149467327));
#1581=CARTESIAN_POINT('',(0.0118916227781418,-0.01,0.0183162158576338));
#1582=CARTESIAN_POINT('',(0.0113989178153491,0.01,0.0182021149467327));
#1583=CARTESIAN_POINT('',(0.0118916227781418,0.01,0.0183162158576338));
#1584=CARTESIAN_POINT('',(0.0118916227781418,0.01,0.0183162158576338));
#1585=CARTESIAN_POINT('',(0.0123428426255148,0.01,0.0163677804213577));
#1586=CARTESIAN_POINT('',(0.0123428426255148,-0.01,0.0163677804213577));
#1587=CARTESIAN_POINT('',(0.0135470223938577,-0.01,0.0179646370478316));
#1588=CARTESIAN_POINT('',(0.0123428426255148,0.01,0.0163677804213577));
#1589=CARTESIAN_POINT('',(0.0135470223938577,0.01,0.0179646370478316));
#1590=CARTESIAN_POINT('',(0.0135470223938577,0.01,0.0179646370478316));
#1591=CARTESIAN_POINT('',(-5.79397640976254E-16,0.01,-1.98625837999344E-16));
#1592=CARTESIAN_POINT('',(-5.79397640976254E-16,-0.01,-1.98625837999344E-16));
#1593=CARTESIAN_POINT('',(0.0212716452700975,-0.01,0.00733260577851681));
#1594=CARTESIAN_POINT('',(-5.79397640976254E-16,0.01,-1.98625837999344E-16));
#1595=CARTESIAN_POINT('',(0.0212716452700975,0.01,0.00733260577851681));
#1596=CARTESIAN_POINT('',(0.0212716452700975,0.01,0.00733260577851681));
#1597=CARTESIAN_POINT('',(0.0193808323571999,0.01,0.0066808185982042));
#1598=CARTESIAN_POINT('',(0.0193808323571999,-0.01,0.0066808185982042));
#1599=CARTESIAN_POINT('',(0.0210944699744133,-0.01,0.00564958335982677));
#1600=CARTESIAN_POINT('',(0.0193808323571999,0.01,0.0066808185982042));
#1601=CARTESIAN_POINT('',(0.0210944699744133,0.01,0.00564958335982677));
#1602=CARTESIAN_POINT('',(0.0210944699744133,0.01,0.00564958335982677));
#1603=CARTESIAN_POINT('',(0.0198024641144924,0.01,0.00350261459768067));
#1604=CARTESIAN_POINT('',(0.0198024641144924,-0.01,0.00350261459768067));
#1605=CARTESIAN_POINT('',(0.0197863623827866,-0.01,0.00347585781889123));
#1606=CARTESIAN_POINT('',(0.0198024641144924,0.01,0.00350261459768067));
#1607=CARTESIAN_POINT('',(0.0197863623827866,0.01,0.00347585781889123));
#1608=CARTESIAN_POINT('',(0.0197863623827866,0.01,0.00347585781889123));
#1609=CARTESIAN_POINT('',(0.0215,0.01,0.0024446225805138));
#1610=CARTESIAN_POINT('',(0.0215,-0.01,0.0024446225805138));
#1611=CARTESIAN_POINT('',(0.0195,-0.01,0.0024446225805138));
#1612=CARTESIAN_POINT('',(0.0215,0.01,0.0024446225805138));
#1613=CARTESIAN_POINT('',(0.0195,0.01,0.0024446225805138));
#1614=CARTESIAN_POINT('',(0.0195,0.01,0.0024446225805138));
#1615=CARTESIAN_POINT('',(0.0195,0.01,-0.0015));
#1616=CARTESIAN_POINT('',(0.0195,-0.01,-0.0015));
#1617=CARTESIAN_POINT('',(0.0195,-0.01,-0.00244462258051379));
#1618=CARTESIAN_POINT('',(0.0195,0.01,-0.0015));
#1619=CARTESIAN_POINT('',(0.0195,0.01,-0.00244462258051379));
#1620=CARTESIAN_POINT('',(0.0195,0.01,-0.00244462258051379));
#1621=CARTESIAN_POINT('',(0.0215,0.01,-0.00244462258051379));
#1622=CARTESIAN_POINT('',(0.0215,-0.01,-0.00244462258051379));
#1623=CARTESIAN_POINT('',(0.0197863623827866,-0.01,-0.00347585781889122));
#1624=CARTESIAN_POINT('',(0.0215,0.01,-0.00244462258051379));
#1625=CARTESIAN_POINT('',(0.0197863623827866,0.01,-0.00347585781889122));
#1626=CARTESIAN_POINT('',(0.0197863623827866,0.01,-0.00347585781889122));
#1627=CARTESIAN_POINT('',(0.0208336993528697,0.01,-0.00521625221489401));
#1628=CARTESIAN_POINT('',(0.0208336993528697,-0.01,-0.00521625221489401));
#1629=CARTESIAN_POINT('',(0.0210944699744133,-0.01,-0.00564958335982679));
#1630=CARTESIAN_POINT('',(0.0208336993528697,0.01,-0.00521625221489401));
#1631=CARTESIAN_POINT('',(0.0210944699744133,0.01,-0.00564958335982679));
#1632=CARTESIAN_POINT('',(0.0210944699744133,0.01,-0.00564958335982679));
#1633=CARTESIAN_POINT('',(0.0193808323571999,0.01,-0.00668081859820422));
#1634=CARTESIAN_POINT('',(0.0193808323571999,-0.01,-0.00668081859820422));
#1635=CARTESIAN_POINT('',(0.0212716452700975,-0.01,-0.00733260577851683));
#1636=CARTESIAN_POINT('',(0.0193808323571999,0.01,-0.00668081859820422));
#1637=CARTESIAN_POINT('',(0.0212716452700975,0.01,-0.00733260577851683));
#1638=CARTESIAN_POINT('',(0.0212716452700975,0.01,-0.00733260577851683));
#1639=CARTESIAN_POINT('',(-7.45931094670027E-17,0.01,8.15320033709099E-17));
#1640=CARTESIAN_POINT('',(-7.45931094670027E-17,-0.01,8.15320033709099E-17));
#1641=CARTESIAN_POINT('',(0.0135470223938575,-0.01,-0.0179646370478316));
#1642=CARTESIAN_POINT('',(-7.45931094670027E-17,0.01,8.15320033709099E-17));
#1643=CARTESIAN_POINT('',(0.0135470223938575,0.01,-0.0179646370478316));
#1644=CARTESIAN_POINT('',(0.0135470223938575,0.01,-0.0179646370478316));
#1645=CARTESIAN_POINT('',(0.0123428426255146,0.01,-0.0163677804213576));
#1646=CARTESIAN_POINT('',(0.0123428426255146,-0.01,-0.0163677804213576));
#1647=CARTESIAN_POINT('',(0.0118916227781417,-0.01,-0.0183162158576338));
#1648=CARTESIAN_POINT('',(0.0123428426255146,0.01,-0.0163677804213576));
#1649=CARTESIAN_POINT('',(0.0118916227781417,0.01,-0.0183162158576338));
#1650=CARTESIAN_POINT('',(0.0118916227781417,0.01,-0.0183162158576338));
#1651=CARTESIAN_POINT('',(0.0094504823790729,0.01,-0.0177508950993598));
#1652=CARTESIAN_POINT('',(0.0094504823790729,-0.01,-0.0177508950993598));
#1653=CARTESIAN_POINT('',(0.00942005946151421,-0.01,-0.0177438497418581));
#1654=CARTESIAN_POINT('',(0.0094504823790729,0.01,-0.0177508950993598));
#1655=CARTESIAN_POINT('',(0.00942005946151421,0.01,-0.0177438497418581));
#1656=CARTESIAN_POINT('',(0.00942005946151421,0.01,-0.0177438497418581));
#1657=CARTESIAN_POINT('',(0.00896883961414128,0.01,-0.0196922851781343));
#1658=CARTESIAN_POINT('',(0.00896883961414128,-0.01,-0.0196922851781343));
#1659=CARTESIAN_POINT('',(0.00835080562539138,-0.01,-0.017790172145544));
#1660=CARTESIAN_POINT('',(0.00896883961414128,0.01,-0.0196922851781343));
#1661=CARTESIAN_POINT('',(0.00835080562539138,0.01,-0.017790172145544));
#1662=CARTESIAN_POINT('',(0.00835080562539138,0.01,-0.017790172145544));
#1663=CARTESIAN_POINT('',(0.00459924661586875,0.01,-0.0190091275593179));
#1664=CARTESIAN_POINT('',(0.00459924661586875,-0.01,-0.0190091275593179));
#1665=CARTESIAN_POINT('',(0.00370085715523157,-0.01,-0.019301031989967));
#1666=CARTESIAN_POINT('',(0.00459924661586875,0.01,-0.0190091275593179));
#1667=CARTESIAN_POINT('',(0.00370085715523157,0.01,-0.019301031989967));
#1668=CARTESIAN_POINT('',(0.00370085715523157,0.01,-0.019301031989967));
#1669=CARTESIAN_POINT('',(0.00431889114398146,0.01,-0.0212031450225573));
#1670=CARTESIAN_POINT('',(0.00431889114398146,-0.01,-0.0212031450225573));
#1671=CARTESIAN_POINT('',(0.0028085850047703,-0.01,-0.019892048013995));
#1672=CARTESIAN_POINT('',(0.00431889114398146,0.01,-0.0212031450225573));
#1673=CARTESIAN_POINT('',(0.0028085850047703,0.01,-0.019892048013995));
#1674=CARTESIAN_POINT('',(0.0028085850047703,0.01,-0.019892048013995));
#1675=CARTESIAN_POINT('',(0.00147701649612113,0.01,-0.0214259361094291));
#1676=CARTESIAN_POINT('',(0.00147701649612113,-0.01,-0.0214259361094291));
#1677=CARTESIAN_POINT('',(0.00114547664070982,-0.01,-0.0218078503962826));
#1678=CARTESIAN_POINT('',(0.00147701649612113,0.01,-0.0214259361094291));
#1679=CARTESIAN_POINT('',(0.00114547664070982,0.01,-0.0218078503962826));
#1680=CARTESIAN_POINT('',(0.00114547664070982,0.01,-0.0218078503962826));
#1681=CARTESIAN_POINT('',(-0.000364829498501335,0.01,-0.0204967533877203));
#1682=CARTESIAN_POINT('',(-0.000364829498501335,-0.01,-0.0204967533877203));
#1683=CARTESIAN_POINT('',(-0.000400422620306353,-0.01,-0.0224964366450589));
#1684=CARTESIAN_POINT('',(-0.000364829498501335,0.01,-0.0204967533877203));
#1685=CARTESIAN_POINT('',(-0.000400422620306353,0.01,-0.0224964366450589));
#1686=CARTESIAN_POINT('',(-0.000400422620306353,0.01,-0.0224964366450589));
#1687=CARTESIAN_POINT('',(1.05818132034585E-16,0.01,1.09287578986539E-16));
#1688=CARTESIAN_POINT('',(1.05818132034585E-16,-0.01,1.09287578986539E-16));
#1689=CARTESIAN_POINT('',(-0.0128991249843376,-0.01,-0.0184353620696323));
#1690=CARTESIAN_POINT('',(1.05818132034585E-16,0.01,1.09287578986539E-16));
#1691=CARTESIAN_POINT('',(-0.0128991249843376,0.01,-0.0184353620696323));
#1692=CARTESIAN_POINT('',(-0.0128991249843376,0.01,-0.0184353620696323));
#1693=CARTESIAN_POINT('',(-0.0117525360968409,0.01,-0.0167966632189984));
#1694=CARTESIAN_POINT('',(-0.0117525360968409,-0.01,-0.0167966632189984));
#1695=CARTESIAN_POINT('',(-0.0117525360968409,0.01,-0.0167966632189984));
#1696=CARTESIAN_POINT('',(6.93889390390723E-18,0.01,-6.93889390390723E-18));
#1697=CARTESIAN_POINT('',(6.93889390390723E-18,0.01,-4.94252474367699E-18));
#1698=CARTESIAN_POINT('',(6.93889390390723E-18,0.01,-0.02465909090909));
#1699=CARTESIAN_POINT('',(6.93889390390723E-18,-0.01,-6.93889390390723E-18));
#1700=CARTESIAN_POINT('',(6.93889390390723E-18,-0.01,-4.94252474367699E-18));
#1701=CARTESIAN_POINT('',(6.93889390390723E-18,-0.01,-0.02465909090909));
#1702=CARTESIAN_POINT('',(6.93889390390723E-18,0.00636363636362,-4.94252474367699E-18));
#1703=CARTESIAN_POINT('',(6.93889390390723E-18,0.00636363636362,-4.94252474367699E-18));
#1704=CARTESIAN_POINT('',(6.93889390390723E-18,0.00636363636362,-0.02465909090909));
#1705=CARTESIAN_POINT('',(6.93889390390723E-18,0.00727272727271,-4.94252474367699E-18));
#1706=CARTESIAN_POINT('',(6.93889390390723E-18,0.00727272727271,-0.02375));
#1707=CARTESIAN_POINT('',(6.93889390390723E-18,0.0081818181818,-4.94252474367699E-18));
#1708=CARTESIAN_POINT('',(6.93889390390723E-18,0.0081818181818,-4.94252474367699E-18));
#1709=CARTESIAN_POINT('',(6.93889390390723E-18,0.0081818181818,-0.02465909090909));
#1710=CARTESIAN_POINT('',(6.93889390390723E-18,0.0331818181818,-4.94252474367699E-18));
#1711=CARTESIAN_POINT('',(6.93889390390723E-18,-0.01863636363638,-4.94252474367699E-18));
#1712=CARTESIAN_POINT('',(6.93889390390723E-18,-0.00818181818182,-4.94252474367699E-18));
#1713=CARTESIAN_POINT('',(6.93889390390723E-18,-0.00818181818182,-0.02465909090909));
#1714=CARTESIAN_POINT('',(6.93889390390723E-18,-0.01863636363638,-4.94252474367699E-18));
#1715=CARTESIAN_POINT('',(6.93889390390723E-18,0.00454545454544,-4.94252474367699E-18));
#1716=CARTESIAN_POINT('',(6.93889390390723E-18,0.00454545454544,0.02465909090909));
#1717=CARTESIAN_POINT('',(6.93889390390723E-18,-0.00636363636364,-4.94252474367699E-18));
#1718=CARTESIAN_POINT('',(6.93889390390723E-18,-0.00727272727273,-4.94252474367699E-18));
#1719=CARTESIAN_POINT('',(6.93889390390723E-18,-0.00727272727273,-0.02375));
#1720=CARTESIAN_POINT('',(6.93889390390723E-18,-0.00636363636364,-4.94252474367699E-18));
#1721=CARTESIAN_POINT('',(6.93889390390723E-18,-0.00636363636364,0.02465909090909));
#1722=CARTESIAN_POINT('',(6.93889390390723E-18,-0.00818181818182,-4.94252474367699E-18));
#1723=CARTESIAN_POINT('',(6.93889390390723E-18,-0.01863636363638,-4.94252474367699E-18));
#1724=CARTESIAN_POINT('',(6.93889390390723E-18,-0.00454545454546,-4.94252474367699E-18));
#1725=CARTESIAN_POINT('',(6.93889390390723E-18,-0.00454545454546,-0.02465909090909));
#1726=CARTESIAN_POINT('',(6.93889390390723E-18,-0.00272727272728,-4.94252474367699E-18));
#1727=CARTESIAN_POINT('',(6.93889390390723E-18,-0.00363636363637,-4.94252474367699E-18));
#1728=CARTESIAN_POINT('',(6.93889390390723E-18,-0.00363636363637,-0.02375));
#1729=CARTESIAN_POINT('',(6.93889390390723E-18,-0.00272727272728,-4.94252474367699E-18));
#1730=CARTESIAN_POINT('',(6.93889390390723E-18,-0.00272727272728,0.02465909090909));
#1731=CARTESIAN_POINT('',(6.93889390390723E-18,-0.00454545454546,-4.94252474367699E-18));
#1732=CARTESIAN_POINT('',(6.93889390390723E-18,-0.01863636363638,-4.94252474367699E-18));
#1733=CARTESIAN_POINT('',(6.93889390390723E-18,-0.000909090909100001,-4.94252474367699E-18));
#1734=CARTESIAN_POINT('',(6.93889390390723E-18,-0.000909090909100001,-0.02465909090909));
#1735=CARTESIAN_POINT('',(6.93889390390723E-18,0.000909090909079998,-4.94252474367699E-18));
#1736=CARTESIAN_POINT('',(6.93889390390723E-18,-1.00006808390063E-14,-4.94252474367699E-18));
#1737=CARTESIAN_POINT('',(6.93889390390723E-18,-1.00006808390063E-14,-0.02375));
#1738=CARTESIAN_POINT('',(6.93889390390723E-18,0.000909090909079998,-4.94252474367699E-18));
#1739=CARTESIAN_POINT('',(6.93889390390723E-18,0.000909090909079998,0.02465909090909));
#1740=CARTESIAN_POINT('',(6.93889390390723E-18,-0.000909090909100001,-4.94252474367699E-18));
#1741=CARTESIAN_POINT('',(6.93889390390723E-18,-0.01863636363638,-4.94252474367699E-18));
#1742=CARTESIAN_POINT('',(6.93889390390723E-18,0.00272727272726,-4.94252474367699E-18));
#1743=CARTESIAN_POINT('',(6.93889390390723E-18,0.00272727272726,-0.02465909090909));
#1744=CARTESIAN_POINT('',(6.93889390390723E-18,0.00454545454544,-4.94252474367699E-18));
#1745=CARTESIAN_POINT('',(6.93889390390723E-18,0.00363636363635,-4.94252474367699E-18));
#1746=CARTESIAN_POINT('',(6.93889390390723E-18,0.00363636363635,-0.02375));
#1747=CARTESIAN_POINT('',(6.93889390390723E-18,0.00272727272726,-4.94252474367699E-18));
#1748=MECHANICAL_DESIGN_GEOMETRIC_PRESENTATION_REPRESENTATION('',(#996),
#1749);
#1749=(
GEOMETRIC_REPRESENTATION_CONTEXT(3)
GLOBAL_UNCERTAINTY_ASSIGNED_CONTEXT((#1750))
GLOBAL_UNIT_ASSIGNED_CONTEXT((#1753,#1752,#1751))
REPRESENTATION_CONTEXT('Wheel Tire','TOP_LEVEL_ASSEMBLY_PART')
);
#1750=UNCERTAINTY_MEASURE_WITH_UNIT(LENGTH_MEASURE(1.E-8),#1753,
'DISTANCE_ACCURACY_VALUE','Maximum Tolerance applied to model');
#1751=(
NAMED_UNIT(*)
SI_UNIT($,.STERADIAN.)
SOLID_ANGLE_UNIT()
);
#1752=(
NAMED_UNIT(*)
PLANE_ANGLE_UNIT()
SI_UNIT($,.RADIAN.)
);
#1753=(
LENGTH_UNIT()
NAMED_UNIT(*)
SI_UNIT($,.METRE.)
);
#1754=PRODUCT_DEFINITION_SHAPE('','',#1755);
#1755=PRODUCT_DEFINITION('','',#1757,#1756);
#1756=PRODUCT_DEFINITION_CONTEXT('',#1763,'design');
#1757=PRODUCT_DEFINITION_FORMATION_WITH_SPECIFIED_SOURCE('','',#1759,
 .NOT_KNOWN.);
#1758=PRODUCT_RELATED_PRODUCT_CATEGORY('','',(#1759));
#1759=PRODUCT('Wheel Tire','Wheel Tire','Wheel Tire',(#1761));
#1760=PRODUCT_CATEGORY('','');
#1761=PRODUCT_CONTEXT('',#1763,'mechanical');
#1762=APPLICATION_PROTOCOL_DEFINITION('international standard',
'ap242_managed_model_based_3d_engineering',2020,#1763);
#1763=APPLICATION_CONTEXT('managed model based 3d engineering');
ENDSEC;
END-ISO-10303-21;
